999
dxfrw 0.6.3
  0
SECTION
  2
HEADER
  9
$ACADVER
  1
AC1027
  9
$DWGCODEPAGE
  3
ANSI_1252
  9
$INSBASE
 10
0
 20
0
 30
0
  9
$EXTMIN
 10
1e+20
 20
1e+20
 30
1e+20
  9
$EXTMAX
 10
-1e+20
 20
-1e+20
 30
-1e+20
  9
$LIMMIN
 10
0
 20
0
  9
$LIMMAX
 10
420
 20
297
  9
$ORTHOMODE
 70
    0
  9
$REGENMODE
 70
    1
  9
$FILLMODE
 70
    1
  9
$QTEXTMODE
 70
    0
  9
$MIRRTEXT
 70
    0
  9
$LTSCALE
 40
1
  9
$ATTMODE
 70
    0
  9
$TEXTSIZE
 40
2.5
  9
$TRACEWID
 40
15.68
  9
$TEXTSTYLE
  7
STANDARD
  9
$CLAYER
  8
0
  9
$CELTYPE
  6
BYLAYER
  9
$CECOLOR
 62
  256
  9
$CELTSCALE
 40
1
  9
$DISPSILH
 70
    0
  9
$DIMSCALE
 40
2.5
  9
$DIMASZ
 40
2.5
  9
$DIMEXO
 40
0.625
  9
$DIMDLI
 40
3.75
  9
$DIMRND
 40
0
  9
$DIMDLE
 40
0
  9
$DIMEXE
 40
1.25
  9
$DIMTP
 40
0
  9
$DIMTM
 40
0
  9
$DIMTXT
 40
2.5
  9
$DIMCEN
 40
2.5
  9
$DIMTSZ
 40
0
  9
$DIMTOL
 70
    0
  9
$DIMLIM
 70
    0
  9
$DIMTIH
 70
    0
  9
$DIMTOH
 70
    0
  9
$DIMSE1
 70
    0
  9
$DIMSE2
 70
    0
  9
$DIMTAD
 70
    1
  9
$DIMZIN
 70
    8
  9
$DIMBLK
  1

  9
$DIMASO
 70
    1
  9
$DIMSHO
 70
    1
  9
$DIMPOST
  1

  9
$DIMAPOST
  1

  9
$DIMALT
 70
    0
  9
$DIMALTD
 70
    3
  9
$DIMALTF
 40
0.03937
  9
$DIMLFAC
 40
1
  9
$DIMTOFL
 70
    1
  9
$DIMTVP
 40
0
  9
$DIMTIX
 70
    0
  9
$DIMSOXD
 70
    0
  9
$DIMSAH
 70
    0
  9
$DIMBLK1
  1

  9
$DIMBLK2
  1

  9
$DIMSTYLE
  2
STANDARD
  9
$DIMCLRD
 70
    0
  9
$DIMCLRE
 70
    0
  9
$DIMCLRT
 70
    0
  9
$DIMTFAC
 40
1
  9
$DIMGAP
 40
0.625
  9
$DIMJUST
 70
    0
  9
$DIMSD1
 70
    0
  9
$DIMSD2
 70
    0
  9
$DIMTOLJ
 70
    0
  9
$DIMTZIN
 70
    8
  9
$DIMALTZ
 70
    0
  9
$DIMALTTZ
 70
    0
  9
$DIMUPT
 70
    0
  9
$DIMDEC
 70
    2
  9
$DIMTDEC
 70
    2
  9
$DIMALTU
 70
    2
  9
$DIMALTTD
 70
    3
  9
$DIMTXSTY
  7
STANDARD
  9
$DIMAUNIT
 70
    0
  9
$DIMADEC
 70
    0
  9
$DIMALTRND
 40
0
  9
$DIMAZIN
 70
    0
  9
$DIMDSEP
 70
   44
  9
$DIMATFIT
 70
    3
  9
$DIMFRAC
 70
    0
  9
$DIMLDRBLK
  1
STANDARD
  9
$DIMLUNIT
 70
    2
  9
$DIMLWD
 70
   -2
  9
$DIMLWE
 70
   -2
  9
$DIMTMOVE
 70
    0
  9
$DIMFXL
 40
1
  9
$DIMFXLON
 70
    0
  9
$DIMJOGANG
 40
0.7854
  9
$DIMTFILL
 70
    0
  9
$DIMTFILLCLR
 70
    0
  9
$DIMARCSYM
 70
    0
  9
$DIMLTYPE
  6

  9
$DIMLTEX1
  6

  9
$DIMLTEX2
  6

  9
$DIMTXTDIRECTION
 70
    0
  9
$LUNITS
 70
    2
  9
$LUPREC
 70
    4
  9
$SKETCHINC
 40
1
  9
$FILLETRAD
 40
0
  9
$AUNITS
 70
    0
  9
$AUPREC
 70
    2
  9
$MENU
  1
.
  9
$ELEVATION
 40
0
  9
$PELEVATION
 40
0
  9
$THICKNESS
 40
0
  9
$LIMCHECK
 70
    0
  9
$CHAMFERA
 40
0
  9
$CHAMFERB
 40
0
  9
$CHAMFERC
 40
0
  9
$CHAMFERD
 40
0
  9
$SKPOLY
 70
    0
  9
$USRTIMER
 70
    1
  9
$ANGBASE
 50
0
  9
$ANGDIR
 70
    0
  9
$PDMODE
 70
   34
  9
$PDSIZE
 40
0
  9
$PLINEWID
 40
0
  9
$SPLFRAME
 70
    0
  9
$SPLINETYPE
 70
    2
  9
$SPLINESEGS
 70
    8
  9
$HANDSEED
  5
20000
  9
$SURFTAB1
 70
    6
  9
$SURFTAB2
 70
    6
  9
$SURFTYPE
 70
    6
  9
$SURFU
 70
    6
  9
$SURFV
 70
    6
  9
$UCSBASE
  2

  9
$UCSNAME
  2

  9
$UCSORG
 10
0
 20
0
 30
0
  9
$UCSXDIR
 10
1
 20
0
 30
0
  9
$UCSYDIR
 10
0
 20
1
 30
0
  9
$UCSORTHOREF
  2

  9
$UCSORTHOVIEW
 70
    0
  9
$UCSORGTOP
 10
0
 20
0
 30
0
  9
$UCSORGBOTTOM
 10
0
 20
0
 30
0
  9
$UCSORGLEFT
 10
0
 20
0
 30
0
  9
$UCSORGRIGHT
 10
0
 20
0
 30
0
  9
$UCSORGFRONT
 10
0
 20
0
 30
0
  9
$UCSORGBACK
 10
0
 20
0
 30
0
  9
$PUCSBASE
  2

  9
$PUCSNAME
  2

  9
$PUCSORG
 10
0
 20
0
 30
0
  9
$PUCSXDIR
 10
1
 20
0
 30
0
  9
$PUCSYDIR
 10
0
 20
1
 30
0
  9
$PUCSORTHOREF
  2

  9
$PUCSORTHOVIEW
 70
    0
  9
$PUCSORGTOP
 10
0
 20
0
 30
0
  9
$PUCSORGBOTTOM
 10
0
 20
0
 30
0
  9
$PUCSORGLEFT
 10
0
 20
0
 30
0
  9
$PUCSORGRIGHT
 10
0
 20
0
 30
0
  9
$PUCSORGFRONT
 10
0
 20
0
 30
0
  9
$PUCSORGBACK
 10
0
 20
0
 30
0
  9
$USERI1
 70
    0
  9
$USERI2
 70
    0
  9
$USERI3
 70
    0
  9
$USERI4
 70
    0
  9
$USERI5
 70
    0
  9
$USERR1
 40
0
  9
$USERR2
 40
0
  9
$USERR3
 40
0
  9
$USERR4
 40
0
  9
$USERR5
 40
0
  9
$WORLDVIEW
 70
    1
  9
$SHADEDGE
 70
    3
  9
$SHADEDIF
 70
   70
  9
$TILEMODE
 70
    1
  9
$MAXACTVP
 70
   64
  9
$PINSBASE
 10
0
 20
0
 30
0
  9
$PLIMCHECK
 70
    0
  9
$PEXTMIN
 10
0
 20
0
 30
0
  9
$PEXTMAX
 10
0
 20
0
 30
0
  9
$PLIMMIN
 10
0
 20
0
  9
$PLIMMAX
 10
297
 20
210
  9
$UNITMODE
 70
    0
  9
$VISRETAIN
 70
    1
  9
$PLINEGEN
 70
    0
  9
$PSLTSCALE
 70
    1
  9
$TREEDEPTH
 70
 3020
  9
$CMLSTYLE
  2
Standard
  9
$CMLJUST
 70
    0
  9
$CMLSCALE
 40
20
  9
$PROXYGRAPHICS
 70
    1
  9
$MEASUREMENT
 70
    1
  9
$CELWEIGHT
370
   -1
  9
$ENDCAPS
280
    0
  9
$JOINSTYLE
280
    0
  9
$LWDISPLAY
290
    0
  9
$INSUNITS
 70
    0
  9
$HYPERLINKBASE
  1

  9
$STYLESHEET
  1

  9
$XEDIT
290
    1
  9
$CEPSNTYPE
380
    0
  9
$PSTYLEMODE
290
    1
  9
$EXTNAMES
290
    1
  9
$PSVPSCALE
 40
0
  9
$OLESTARTUP
290
    0
  9
$SORTENTS
280
  127
  9
$INDEXCTL
280
    0
  9
$HIDETEXT
280
    1
  9
$XCLIPFRAME
280
    0
  9
$HALOGAP
280
    0
  9
$OBSCOLOR
 70
  257
  9
$OBSLTYPE
280
    0
  9
$INTERSECTIONDISPLAY
280
    0
  9
$INTERSECTIONCOLOR
 70
  257
  9
$DIMASSOC
280
    1
  9
$PROJECTNAME
  1

  9
$CAMERADISPLAY
290
    0
  9
$LENSLENGTH
 40
50
  9
$CAMERAHEIGHT
 40
0
  9
$STEPSPERSEC
 40
2
  9
$STEPSIZE
 40
50
  9
$3DDWFPREC
 40
2
  9
$PSOLWIDTH
 40
5
  9
$PSOLHEIGHT
 40
80
  9
$LOFTANG1
 40
1.570796326794897
  9
$LOFTANG2
 40
1.570796326794897
  9
$LOFTMAG1
 40
0
  9
$LOFTMAG2
 40
0
  9
$LOFTPARAM
 70
    7
  9
$LOFTNORMALS
280
    1
  9
$LATITUDE
 40
1
  9
$LONGITUDE
 40
1
  9
$NORTHDIRECTION
 40
0
  9
$TIMEZONE
 70
-8000
  9
$LIGHTGLYPHDISPLAY
280
    1
  9
$TILEMODELIGHTSYNCH
280
    1
  9
$SOLIDHIST
280
    1
  9
$SHOWHIST
280
    1
  9
$DWFFRAME
280
    2
  9
$DGNFRAME
280
    0
  9
$REALWORLDSCALE
290
    1
  9
$INTERFERECOLOR
 62
    1
  9
$CSHADOW
280
    0
  9
$SHADOWPLANELOCATION
 40
0
  0
ENDSEC
  0
SECTION
  2
CLASSES
  0
ENDSEC
  0
SECTION
  2
TABLES
  0
TABLE
  2
VPORT
  5
8
330
0
100
AcDbSymbolTable
 70
    1
  0
VPORT
  5
31
330
2
100
AcDbSymbolTableRecord
100
AcDbViewportTableRecord
  2
*ACTIVE
 70
    0
 10
0
 20
0
 11
1
 21
1
 12
0.651828
 22
-0.16
 13
0
 23
0
 14
10
 24
10
 15
10
 25
10
 16
0
 26
0
 36
1
 17
0
 27
0
 37
0
 40
5.13732
 41
2.4426877
 42
50
 43
0
 44
0
 50
0
 51
0
 71
    0
 72
  100
 73
    1
 74
    3
 75
    0
 76
    0
 77
    0
 78
    0
281
    0
 65
    1
110
0
120
0
130
0
111
1
121
0
131
0
112
0
122
1
132
0
 79
    0
146
0
348
10020
 60
    7
 61
    5
292
1
282
    1
141
0
142
0
 63
  250
421
3358443
  0
ENDTAB
  0
TABLE
  2
LTYPE
  5
5
330
0
100
AcDbSymbolTable
 70
    4
  0
LTYPE
  5
14
330
5
100
AcDbSymbolTableRecord
100
AcDbLinetypeTableRecord
  2
ByBlock
 70
    0
  3

 72
   65
 73
    0
 40
0
  0
LTYPE
  5
15
330
5
100
AcDbSymbolTableRecord
100
AcDbLinetypeTableRecord
  2
ByLayer
 70
    0
  3

 72
   65
 73
    0
 40
0
  0
LTYPE
  5
16
330
5
100
AcDbSymbolTableRecord
100
AcDbLinetypeTableRecord
  2
Continuous
 70
    0
  3
Solid line
 72
   65
 73
    0
 40
0
  0
ENDTAB
  0
TABLE
  2
LAYER
  5
2
330
0
100
AcDbSymbolTable
 70
    1
  0
LAYER
  5
10
330
2
100
AcDbSymbolTableRecord
100
AcDbLayerTableRecord
  2
0
 70
    0
 62
    7
  6
CONTINUOUS
370
   -3
390
F
  0
ENDTAB
  0
TABLE
  2
STYLE
  5
3
330
0
100
AcDbSymbolTable
 70
    3
  0
STYLE
  5
32
330
2
100
AcDbSymbolTableRecord
100
AcDbTextStyleTableRecord
  2
Standard
 70
    0
 40
0
 41
1
 50
0
 71
    0
 42
1
  3
txt
  4

  0
ENDTAB
  0
TABLE
  2
VIEW
  5
6
330
0
100
AcDbSymbolTable
 70
    0
  0
ENDTAB
  0
TABLE
  2
UCS
  5
7
330
0
100
AcDbSymbolTable
 70
    0
  0
ENDTAB
  0
TABLE
  2
APPID
  5
9
330
0
100
AcDbSymbolTable
 70
    1
  0
APPID
  5
12
330
9
100
AcDbSymbolTableRecord
100
AcDbRegAppTableRecord
  2
ACAD
 70
    0
  0
ENDTAB
  0
TABLE
  2
DIMSTYLE
  5
A
330
0
100
AcDbSymbolTable
 70
    1
100
AcDbDimStyleTable
 71
    1
  0
DIMSTYLE
105
33
330
A
100
AcDbSymbolTableRecord
100
AcDbDimStyleTableRecord
  2
Standard
 70
    0
 40
1
 41
0.18
 42
0.0625
 43
0.38
 44
0.18
 45
0
 46
0
 47
0
 48
0
 49
1
140
0.18
141
0.09
142
0
143
25.4
144
1
145
0
146
1
147
0.09
148
0
 71
    0
 72
    0
 73
    0
 74
    1
 75
    0
 76
    0
 77
    0
 78
    0
 79
    0
170
    0
171
    2
172
    0
173
    0
174
    0
175
    0
176
    0
177
    0
178
    0
179
    0
271
    4
272
    4
273
    2
274
    2
275
    0
276
    0
277
    2
278
   46
279
    0
280
    0
281
    0
282
    0
283
    1
284
    0
285
    0
286
    0
288
    0
289
    3
340
Standard
341

371
   -2
372
   -2
  0
ENDTAB
  0
TABLE
  2
BLOCK_RECORD
  5
1
330
0
100
AcDbSymbolTable
 70
    2
  0
BLOCK_RECORD
  5
1F
330
1
100
AcDbSymbolTableRecord
100
AcDbBlockTableRecord
  2
*Model_Space
 70
    0
280
    1
281
    0
  0
BLOCK_RECORD
  5
1E
330
1
100
AcDbSymbolTableRecord
100
AcDbBlockTableRecord
  2
*Paper_Space
 70
    0
280
    1
281
    0
  0
ENDTAB
  0
ENDSEC
  0
SECTION
  2
BLOCKS
  0
BLOCK
  5
20
330
1F
100
AcDbEntity
  8
0
100
AcDbBlockBegin
  2
*Model_Space
 70
    0
 10
0
 20
0
 30
0
  3
*Model_Space
  1

  0
ENDBLK
  5
21
330
1F
100
AcDbEntity
  8
0
100
AcDbBlockEnd
  0
BLOCK
  5
1C
330
1B
100
AcDbEntity
  8
0
100
AcDbBlockBegin
  2
*Paper_Space
 70
    0
 10
0
 20
0
 30
0
  3
*Paper_Space
  1

  0
ENDBLK
  5
1D
330
1F
100
AcDbEntity
  8
0
100
AcDbBlockEnd
  0
ENDSEC
  0
SECTION
  2
ENTITIES
  0
LINE
  5
34
100
AcDbEntity
  8
0
  6
BYLAYER
 62
  256
370
   -1
100
AcDbLine
 10
0
 20
0
 11
0
 21
65
  0
LINE
  5
35
100
AcDbEntity
  8
0
  6
BYLAYER
 62
  256
370
   -1
100
AcDbLine
 10
0
 20
0
 11
200
 21
0
  0
LINE
  5
36
100
AcDbEntity
  8
0
  6
BYLAYER
 62
  256
370
   -1
100
AcDbLine
 10
0
 20
0
 11
2
 21
0
  0
TEXT
  5
37
100
AcDbEntity
  8
0
  6
BYLAYER
 62
  256
370
   -1
100
AcDbText
 10
-2.5
 20
0
 30
0
 40
1
  1
0
 50
0
 41
1
 51
0
  7
STANDARD
 71
    0
210
0
220
0
230
1
100
AcDbText
  0
LINE
  5
38
100
AcDbEntity
  8
0
  6
BYLAYER
 62
  256
370
   -1
100
AcDbLine
 10
0
 20
1
 11
1
 21
1
  0
LINE
  5
39
100
AcDbEntity
  8
0
  6
BYLAYER
 62
  256
370
   -1
100
AcDbLine
 10
0
 20
2
 11
1
 21
2
  0
LINE
  5
3A
100
AcDbEntity
  8
0
  6
BYLAYER
 62
  256
370
   -1
100
AcDbLine
 10
0
 20
3
 11
1
 21
3
  0
LINE
  5
3B
100
AcDbEntity
  8
0
  6
BYLAYER
 62
  256
370
   -1
100
AcDbLine
 10
0
 20
4
 11
1
 21
4
  0
LINE
  5
3C
100
AcDbEntity
  8
0
  6
BYLAYER
 62
  256
370
   -1
100
AcDbLine
 10
0
 20
5
 11
2
 21
5
  0
TEXT
  5
3D
100
AcDbEntity
  8
0
  6
BYLAYER
 62
  256
370
   -1
100
AcDbText
 10
-2.5
 20
5
 30
0
 40
1
  1
5
 50
0
 41
1
 51
0
  7
STANDARD
 71
    0
210
0
220
0
230
1
100
AcDbText
  0
LINE
  5
3E
100
AcDbEntity
  8
0
  6
BYLAYER
 62
  256
370
   -1
100
AcDbLine
 10
0
 20
6
 11
1
 21
6
  0
LINE
  5
3F
100
AcDbEntity
  8
0
  6
BYLAYER
 62
  256
370
   -1
100
AcDbLine
 10
0
 20
7
 11
1
 21
7
  0
LINE
  5
40
100
AcDbEntity
  8
0
  6
BYLAYER
 62
  256
370
   -1
100
AcDbLine
 10
0
 20
8
 11
1
 21
8
  0
LINE
  5
41
100
AcDbEntity
  8
0
  6
BYLAYER
 62
  256
370
   -1
100
AcDbLine
 10
0
 20
9
 11
1
 21
9
  0
LINE
  5
42
100
AcDbEntity
  8
0
  6
BYLAYER
 62
  256
370
   -1
100
AcDbLine
 10
0
 20
10
 11
2
 21
10
  0
TEXT
  5
43
100
AcDbEntity
  8
0
  6
BYLAYER
 62
  256
370
   -1
100
AcDbText
 10
-2.5
 20
10
 30
0
 40
1
  1
10
 50
0
 41
1
 51
0
  7
STANDARD
 71
    0
210
0
220
0
230
1
100
AcDbText
  0
LINE
  5
44
100
AcDbEntity
  8
0
  6
BYLAYER
 62
  256
370
   -1
100
AcDbLine
 10
0
 20
11
 11
1
 21
11
  0
LINE
  5
45
100
AcDbEntity
  8
0
  6
BYLAYER
 62
  256
370
   -1
100
AcDbLine
 10
0
 20
12
 11
1
 21
12
  0
LINE
  5
46
100
AcDbEntity
  8
0
  6
BYLAYER
 62
  256
370
   -1
100
AcDbLine
 10
0
 20
13
 11
1
 21
13
  0
LINE
  5
47
100
AcDbEntity
  8
0
  6
BYLAYER
 62
  256
370
   -1
100
AcDbLine
 10
0
 20
14
 11
1
 21
14
  0
LINE
  5
48
100
AcDbEntity
  8
0
  6
BYLAYER
 62
  256
370
   -1
100
AcDbLine
 10
0
 20
15
 11
2
 21
15
  0
TEXT
  5
49
100
AcDbEntity
  8
0
  6
BYLAYER
 62
  256
370
   -1
100
AcDbText
 10
-2.5
 20
15
 30
0
 40
1
  1
15
 50
0
 41
1
 51
0
  7
STANDARD
 71
    0
210
0
220
0
230
1
100
AcDbText
  0
LINE
  5
4A
100
AcDbEntity
  8
0
  6
BYLAYER
 62
  256
370
   -1
100
AcDbLine
 10
0
 20
16
 11
1
 21
16
  0
LINE
  5
4B
100
AcDbEntity
  8
0
  6
BYLAYER
 62
  256
370
   -1
100
AcDbLine
 10
0
 20
17
 11
1
 21
17
  0
LINE
  5
4C
100
AcDbEntity
  8
0
  6
BYLAYER
 62
  256
370
   -1
100
AcDbLine
 10
0
 20
18
 11
1
 21
18
  0
LINE
  5
4D
100
AcDbEntity
  8
0
  6
BYLAYER
 62
  256
370
   -1
100
AcDbLine
 10
0
 20
19
 11
1
 21
19
  0
LINE
  5
4E
100
AcDbEntity
  8
0
  6
BYLAYER
 62
  256
370
   -1
100
AcDbLine
 10
0
 20
20
 11
2
 21
20
  0
TEXT
  5
4F
100
AcDbEntity
  8
0
  6
BYLAYER
 62
  256
370
   -1
100
AcDbText
 10
-2.5
 20
20
 30
0
 40
1
  1
20
 50
0
 41
1
 51
0
  7
STANDARD
 71
    0
210
0
220
0
230
1
100
AcDbText
  0
LINE
  5
50
100
AcDbEntity
  8
0
  6
BYLAYER
 62
  256
370
   -1
100
AcDbLine
 10
0
 20
21
 11
1
 21
21
  0
LINE
  5
51
100
AcDbEntity
  8
0
  6
BYLAYER
 62
  256
370
   -1
100
AcDbLine
 10
0
 20
22
 11
1
 21
22
  0
LINE
  5
52
100
AcDbEntity
  8
0
  6
BYLAYER
 62
  256
370
   -1
100
AcDbLine
 10
0
 20
23
 11
1
 21
23
  0
LINE
  5
53
100
AcDbEntity
  8
0
  6
BYLAYER
 62
  256
370
   -1
100
AcDbLine
 10
0
 20
24
 11
1
 21
24
  0
LINE
  5
54
100
AcDbEntity
  8
0
  6
BYLAYER
 62
  256
370
   -1
100
AcDbLine
 10
0
 20
25
 11
2
 21
25
  0
TEXT
  5
55
100
AcDbEntity
  8
0
  6
BYLAYER
 62
  256
370
   -1
100
AcDbText
 10
-2.5
 20
25
 30
0
 40
1
  1
25
 50
0
 41
1
 51
0
  7
STANDARD
 71
    0
210
0
220
0
230
1
100
AcDbText
  0
LINE
  5
56
100
AcDbEntity
  8
0
  6
BYLAYER
 62
  256
370
   -1
100
AcDbLine
 10
0
 20
26
 11
1
 21
26
  0
LINE
  5
57
100
AcDbEntity
  8
0
  6
BYLAYER
 62
  256
370
   -1
100
AcDbLine
 10
0
 20
27
 11
1
 21
27
  0
LINE
  5
58
100
AcDbEntity
  8
0
  6
BYLAYER
 62
  256
370
   -1
100
AcDbLine
 10
0
 20
28
 11
1
 21
28
  0
LINE
  5
59
100
AcDbEntity
  8
0
  6
BYLAYER
 62
  256
370
   -1
100
AcDbLine
 10
0
 20
29
 11
1
 21
29
  0
LINE
  5
5A
100
AcDbEntity
  8
0
  6
BYLAYER
 62
  256
370
   -1
100
AcDbLine
 10
0
 20
30
 11
2
 21
30
  0
TEXT
  5
5B
100
AcDbEntity
  8
0
  6
BYLAYER
 62
  256
370
   -1
100
AcDbText
 10
-2.5
 20
30
 30
0
 40
1
  1
30
 50
0
 41
1
 51
0
  7
STANDARD
 71
    0
210
0
220
0
230
1
100
AcDbText
  0
LINE
  5
5C
100
AcDbEntity
  8
0
  6
BYLAYER
 62
  256
370
   -1
100
AcDbLine
 10
0
 20
31
 11
1
 21
31
  0
LINE
  5
5D
100
AcDbEntity
  8
0
  6
BYLAYER
 62
  256
370
   -1
100
AcDbLine
 10
0
 20
32
 11
1
 21
32
  0
LINE
  5
5E
100
AcDbEntity
  8
0
  6
BYLAYER
 62
  256
370
   -1
100
AcDbLine
 10
0
 20
33
 11
1
 21
33
  0
LINE
  5
5F
100
AcDbEntity
  8
0
  6
BYLAYER
 62
  256
370
   -1
100
AcDbLine
 10
0
 20
34
 11
1
 21
34
  0
LINE
  5
60
100
AcDbEntity
  8
0
  6
BYLAYER
 62
  256
370
   -1
100
AcDbLine
 10
0
 20
35
 11
2
 21
35
  0
TEXT
  5
61
100
AcDbEntity
  8
0
  6
BYLAYER
 62
  256
370
   -1
100
AcDbText
 10
-2.5
 20
35
 30
0
 40
1
  1
35
 50
0
 41
1
 51
0
  7
STANDARD
 71
    0
210
0
220
0
230
1
100
AcDbText
  0
LINE
  5
62
100
AcDbEntity
  8
0
  6
BYLAYER
 62
  256
370
   -1
100
AcDbLine
 10
0
 20
36
 11
1
 21
36
  0
LINE
  5
63
100
AcDbEntity
  8
0
  6
BYLAYER
 62
  256
370
   -1
100
AcDbLine
 10
0
 20
37
 11
1
 21
37
  0
LINE
  5
64
100
AcDbEntity
  8
0
  6
BYLAYER
 62
  256
370
   -1
100
AcDbLine
 10
0
 20
38
 11
1
 21
38
  0
LINE
  5
65
100
AcDbEntity
  8
0
  6
BYLAYER
 62
  256
370
   -1
100
AcDbLine
 10
0
 20
39
 11
1
 21
39
  0
LINE
  5
66
100
AcDbEntity
  8
0
  6
BYLAYER
 62
  256
370
   -1
100
AcDbLine
 10
0
 20
40
 11
2
 21
40
  0
TEXT
  5
67
100
AcDbEntity
  8
0
  6
BYLAYER
 62
  256
370
   -1
100
AcDbText
 10
-2.5
 20
40
 30
0
 40
1
  1
40
 50
0
 41
1
 51
0
  7
STANDARD
 71
    0
210
0
220
0
230
1
100
AcDbText
  0
LINE
  5
68
100
AcDbEntity
  8
0
  6
BYLAYER
 62
  256
370
   -1
100
AcDbLine
 10
0
 20
41
 11
1
 21
41
  0
LINE
  5
69
100
AcDbEntity
  8
0
  6
BYLAYER
 62
  256
370
   -1
100
AcDbLine
 10
0
 20
42
 11
1
 21
42
  0
LINE
  5
6A
100
AcDbEntity
  8
0
  6
BYLAYER
 62
  256
370
   -1
100
AcDbLine
 10
0
 20
43
 11
1
 21
43
  0
LINE
  5
6B
100
AcDbEntity
  8
0
  6
BYLAYER
 62
  256
370
   -1
100
AcDbLine
 10
0
 20
44
 11
1
 21
44
  0
LINE
  5
6C
100
AcDbEntity
  8
0
  6
BYLAYER
 62
  256
370
   -1
100
AcDbLine
 10
0
 20
45
 11
2
 21
45
  0
TEXT
  5
6D
100
AcDbEntity
  8
0
  6
BYLAYER
 62
  256
370
   -1
100
AcDbText
 10
-2.5
 20
45
 30
0
 40
1
  1
45
 50
0
 41
1
 51
0
  7
STANDARD
 71
    0
210
0
220
0
230
1
100
AcDbText
  0
LINE
  5
6E
100
AcDbEntity
  8
0
  6
BYLAYER
 62
  256
370
   -1
100
AcDbLine
 10
0
 20
46
 11
1
 21
46
  0
LINE
  5
6F
100
AcDbEntity
  8
0
  6
BYLAYER
 62
  256
370
   -1
100
AcDbLine
 10
0
 20
47
 11
1
 21
47
  0
LINE
  5
70
100
AcDbEntity
  8
0
  6
BYLAYER
 62
  256
370
   -1
100
AcDbLine
 10
0
 20
48
 11
1
 21
48
  0
LINE
  5
71
100
AcDbEntity
  8
0
  6
BYLAYER
 62
  256
370
   -1
100
AcDbLine
 10
0
 20
49
 11
1
 21
49
  0
LINE
  5
72
100
AcDbEntity
  8
0
  6
BYLAYER
 62
  256
370
   -1
100
AcDbLine
 10
0
 20
50
 11
2
 21
50
  0
TEXT
  5
73
100
AcDbEntity
  8
0
  6
BYLAYER
 62
  256
370
   -1
100
AcDbText
 10
-2.5
 20
50
 30
0
 40
1
  1
50
 50
0
 41
1
 51
0
  7
STANDARD
 71
    0
210
0
220
0
230
1
100
AcDbText
  0
LINE
  5
74
100
AcDbEntity
  8
0
  6
BYLAYER
 62
  256
370
   -1
100
AcDbLine
 10
0
 20
51
 11
1
 21
51
  0
LINE
  5
75
100
AcDbEntity
  8
0
  6
BYLAYER
 62
  256
370
   -1
100
AcDbLine
 10
0
 20
52
 11
1
 21
52
  0
LINE
  5
76
100
AcDbEntity
  8
0
  6
BYLAYER
 62
  256
370
   -1
100
AcDbLine
 10
0
 20
53
 11
1
 21
53
  0
LINE
  5
77
100
AcDbEntity
  8
0
  6
BYLAYER
 62
  256
370
   -1
100
AcDbLine
 10
0
 20
54
 11
1
 21
54
  0
LINE
  5
78
100
AcDbEntity
  8
0
  6
BYLAYER
 62
  256
370
   -1
100
AcDbLine
 10
0
 20
55
 11
2
 21
55
  0
TEXT
  5
79
100
AcDbEntity
  8
0
  6
BYLAYER
 62
  256
370
   -1
100
AcDbText
 10
-2.5
 20
55
 30
0
 40
1
  1
55
 50
0
 41
1
 51
0
  7
STANDARD
 71
    0
210
0
220
0
230
1
100
AcDbText
  0
LINE
  5
7A
100
AcDbEntity
  8
0
  6
BYLAYER
 62
  256
370
   -1
100
AcDbLine
 10
0
 20
56
 11
1
 21
56
  0
LINE
  5
7B
100
AcDbEntity
  8
0
  6
BYLAYER
 62
  256
370
   -1
100
AcDbLine
 10
0
 20
57
 11
1
 21
57
  0
LINE
  5
7C
100
AcDbEntity
  8
0
  6
BYLAYER
 62
  256
370
   -1
100
AcDbLine
 10
0
 20
58
 11
1
 21
58
  0
LINE
  5
7D
100
AcDbEntity
  8
0
  6
BYLAYER
 62
  256
370
   -1
100
AcDbLine
 10
0
 20
59
 11
1
 21
59
  0
LINE
  5
7E
100
AcDbEntity
  8
0
  6
BYLAYER
 62
  256
370
   -1
100
AcDbLine
 10
0
 20
60
 11
2
 21
60
  0
TEXT
  5
7F
100
AcDbEntity
  8
0
  6
BYLAYER
 62
  256
370
   -1
100
AcDbText
 10
-2.5
 20
60
 30
0
 40
1
  1
60
 50
0
 41
1
 51
0
  7
STANDARD
 71
    0
210
0
220
0
230
1
100
AcDbText
  0
LINE
  5
80
100
AcDbEntity
  8
0
  6
BYLAYER
 62
  256
370
   -1
100
AcDbLine
 10
0
 20
61
 11
1
 21
61
  0
LINE
  5
81
100
AcDbEntity
  8
0
  6
BYLAYER
 62
  256
370
   -1
100
AcDbLine
 10
0
 20
62
 11
1
 21
62
  0
LINE
  5
82
100
AcDbEntity
  8
0
  6
BYLAYER
 62
  256
370
   -1
100
AcDbLine
 10
0
 20
63
 11
1
 21
63
  0
LINE
  5
83
100
AcDbEntity
  8
0
  6
BYLAYER
 62
  256
370
   -1
100
AcDbLine
 10
0
 20
64
 11
1
 21
64
  0
LINE
  5
84
100
AcDbEntity
  8
0
  6
BYLAYER
 62
  256
370
   -1
100
AcDbLine
 10
0
 20
65
 11
2
 21
65
  0
TEXT
  5
85
100
AcDbEntity
  8
0
  6
BYLAYER
 62
  256
370
   -1
100
AcDbText
 10
-2.5
 20
65
 30
0
 40
1
  1
65
 50
0
 41
1
 51
0
  7
STANDARD
 71
    0
210
0
220
0
230
1
100
AcDbText
  0
LINE
  5
86
100
AcDbEntity
  8
0
  6
BYLAYER
 62
  256
370
   -1
100
AcDbLine
 10
10
 20
0
 11
10
 21
2
  0
TEXT
  5
87
100
AcDbEntity
  8
0
  6
BYLAYER
 62
  256
370
   -1
100
AcDbText
 10
10
 20
-2.5
 30
0
 40
1
  1
10
 50
0
 41
1
 51
0
  7
STANDARD
 71
    0
210
0
220
0
230
1
100
AcDbText
  0
LINE
  5
88
100
AcDbEntity
  8
0
  6
BYLAYER
 62
  256
370
   -1
100
AcDbLine
 10
11
 20
0
 11
11
 21
1
  0
LINE
  5
89
100
AcDbEntity
  8
0
  6
BYLAYER
 62
  256
370
   -1
100
AcDbLine
 10
12
 20
0
 11
12
 21
1
  0
LINE
  5
8A
100
AcDbEntity
  8
0
  6
BYLAYER
 62
  256
370
   -1
100
AcDbLine
 10
13
 20
0
 11
13
 21
1
  0
LINE
  5
8B
100
AcDbEntity
  8
0
  6
BYLAYER
 62
  256
370
   -1
100
AcDbLine
 10
14
 20
0
 11
14
 21
1
  0
LINE
  5
8C
100
AcDbEntity
  8
0
  6
BYLAYER
 62
  256
370
   -1
100
AcDbLine
 10
15
 20
0
 11
15
 21
1
  0
LINE
  5
8D
100
AcDbEntity
  8
0
  6
BYLAYER
 62
  256
370
   -1
100
AcDbLine
 10
16
 20
0
 11
16
 21
1
  0
LINE
  5
8E
100
AcDbEntity
  8
0
  6
BYLAYER
 62
  256
370
   -1
100
AcDbLine
 10
17
 20
0
 11
17
 21
1
  0
LINE
  5
8F
100
AcDbEntity
  8
0
  6
BYLAYER
 62
  256
370
   -1
100
AcDbLine
 10
18
 20
0
 11
18
 21
1
  0
LINE
  5
90
100
AcDbEntity
  8
0
  6
BYLAYER
 62
  256
370
   -1
100
AcDbLine
 10
19
 20
0
 11
19
 21
1
  0
LINE
  5
91
100
AcDbEntity
  8
0
  6
BYLAYER
 62
  256
370
   -1
100
AcDbLine
 10
20
 20
0
 11
20
 21
2
  0
TEXT
  5
92
100
AcDbEntity
  8
0
  6
BYLAYER
 62
  256
370
   -1
100
AcDbText
 10
20
 20
-2.5
 30
0
 40
1
  1
20
 50
0
 41
1
 51
0
  7
STANDARD
 71
    0
210
0
220
0
230
1
100
AcDbText
  0
LINE
  5
93
100
AcDbEntity
  8
0
  6
BYLAYER
 62
  256
370
   -1
100
AcDbLine
 10
21
 20
0
 11
21
 21
1
  0
LINE
  5
94
100
AcDbEntity
  8
0
  6
BYLAYER
 62
  256
370
   -1
100
AcDbLine
 10
22
 20
0
 11
22
 21
1
  0
LINE
  5
95
100
AcDbEntity
  8
0
  6
BYLAYER
 62
  256
370
   -1
100
AcDbLine
 10
23
 20
0
 11
23
 21
1
  0
LINE
  5
96
100
AcDbEntity
  8
0
  6
BYLAYER
 62
  256
370
   -1
100
AcDbLine
 10
24
 20
0
 11
24
 21
1
  0
LINE
  5
97
100
AcDbEntity
  8
0
  6
BYLAYER
 62
  256
370
   -1
100
AcDbLine
 10
25
 20
0
 11
25
 21
1
  0
LINE
  5
98
100
AcDbEntity
  8
0
  6
BYLAYER
 62
  256
370
   -1
100
AcDbLine
 10
26
 20
0
 11
26
 21
1
  0
LINE
  5
99
100
AcDbEntity
  8
0
  6
BYLAYER
 62
  256
370
   -1
100
AcDbLine
 10
27
 20
0
 11
27
 21
1
  0
LINE
  5
9A
100
AcDbEntity
  8
0
  6
BYLAYER
 62
  256
370
   -1
100
AcDbLine
 10
28
 20
0
 11
28
 21
1
  0
LINE
  5
9B
100
AcDbEntity
  8
0
  6
BYLAYER
 62
  256
370
   -1
100
AcDbLine
 10
29
 20
0
 11
29
 21
1
  0
LINE
  5
9C
100
AcDbEntity
  8
0
  6
BYLAYER
 62
  256
370
   -1
100
AcDbLine
 10
30
 20
0
 11
30
 21
2
  0
TEXT
  5
9D
100
AcDbEntity
  8
0
  6
BYLAYER
 62
  256
370
   -1
100
AcDbText
 10
30
 20
-2.5
 30
0
 40
1
  1
30
 50
0
 41
1
 51
0
  7
STANDARD
 71
    0
210
0
220
0
230
1
100
AcDbText
  0
LINE
  5
9E
100
AcDbEntity
  8
0
  6
BYLAYER
 62
  256
370
   -1
100
AcDbLine
 10
31
 20
0
 11
31
 21
1
  0
LINE
  5
9F
100
AcDbEntity
  8
0
  6
BYLAYER
 62
  256
370
   -1
100
AcDbLine
 10
32
 20
0
 11
32
 21
1
  0
LINE
  5
A0
100
AcDbEntity
  8
0
  6
BYLAYER
 62
  256
370
   -1
100
AcDbLine
 10
33
 20
0
 11
33
 21
1
  0
LINE
  5
A1
100
AcDbEntity
  8
0
  6
BYLAYER
 62
  256
370
   -1
100
AcDbLine
 10
34
 20
0
 11
34
 21
1
  0
LINE
  5
A2
100
AcDbEntity
  8
0
  6
BYLAYER
 62
  256
370
   -1
100
AcDbLine
 10
35
 20
0
 11
35
 21
1
  0
LINE
  5
A3
100
AcDbEntity
  8
0
  6
BYLAYER
 62
  256
370
   -1
100
AcDbLine
 10
36
 20
0
 11
36
 21
1
  0
LINE
  5
A4
100
AcDbEntity
  8
0
  6
BYLAYER
 62
  256
370
   -1
100
AcDbLine
 10
37
 20
0
 11
37
 21
1
  0
LINE
  5
A5
100
AcDbEntity
  8
0
  6
BYLAYER
 62
  256
370
   -1
100
AcDbLine
 10
38
 20
0
 11
38
 21
1
  0
LINE
  5
A6
100
AcDbEntity
  8
0
  6
BYLAYER
 62
  256
370
   -1
100
AcDbLine
 10
39
 20
0
 11
39
 21
1
  0
LINE
  5
A7
100
AcDbEntity
  8
0
  6
BYLAYER
 62
  256
370
   -1
100
AcDbLine
 10
40
 20
0
 11
40
 21
2
  0
TEXT
  5
A8
100
AcDbEntity
  8
0
  6
BYLAYER
 62
  256
370
   -1
100
AcDbText
 10
40
 20
-2.5
 30
0
 40
1
  1
40
 50
0
 41
1
 51
0
  7
STANDARD
 71
    0
210
0
220
0
230
1
100
AcDbText
  0
LINE
  5
A9
100
AcDbEntity
  8
0
  6
BYLAYER
 62
  256
370
   -1
100
AcDbLine
 10
41
 20
0
 11
41
 21
1
  0
LINE
  5
AA
100
AcDbEntity
  8
0
  6
BYLAYER
 62
  256
370
   -1
100
AcDbLine
 10
42
 20
0
 11
42
 21
1
  0
LINE
  5
AB
100
AcDbEntity
  8
0
  6
BYLAYER
 62
  256
370
   -1
100
AcDbLine
 10
43
 20
0
 11
43
 21
1
  0
LINE
  5
AC
100
AcDbEntity
  8
0
  6
BYLAYER
 62
  256
370
   -1
100
AcDbLine
 10
44
 20
0
 11
44
 21
1
  0
LINE
  5
AD
100
AcDbEntity
  8
0
  6
BYLAYER
 62
  256
370
   -1
100
AcDbLine
 10
45
 20
0
 11
45
 21
1
  0
LINE
  5
AE
100
AcDbEntity
  8
0
  6
BYLAYER
 62
  256
370
   -1
100
AcDbLine
 10
46
 20
0
 11
46
 21
1
  0
LINE
  5
AF
100
AcDbEntity
  8
0
  6
BYLAYER
 62
  256
370
   -1
100
AcDbLine
 10
47
 20
0
 11
47
 21
1
  0
LINE
  5
B0
100
AcDbEntity
  8
0
  6
BYLAYER
 62
  256
370
   -1
100
AcDbLine
 10
48
 20
0
 11
48
 21
1
  0
LINE
  5
B1
100
AcDbEntity
  8
0
  6
BYLAYER
 62
  256
370
   -1
100
AcDbLine
 10
49
 20
0
 11
49
 21
1
  0
LINE
  5
B2
100
AcDbEntity
  8
0
  6
BYLAYER
 62
  256
370
   -1
100
AcDbLine
 10
50
 20
0
 11
50
 21
2
  0
TEXT
  5
B3
100
AcDbEntity
  8
0
  6
BYLAYER
 62
  256
370
   -1
100
AcDbText
 10
50
 20
-2.5
 30
0
 40
1
  1
50
 50
0
 41
1
 51
0
  7
STANDARD
 71
    0
210
0
220
0
230
1
100
AcDbText
  0
LINE
  5
B4
100
AcDbEntity
  8
0
  6
BYLAYER
 62
  256
370
   -1
100
AcDbLine
 10
51
 20
0
 11
51
 21
1
  0
LINE
  5
B5
100
AcDbEntity
  8
0
  6
BYLAYER
 62
  256
370
   -1
100
AcDbLine
 10
52
 20
0
 11
52
 21
1
  0
LINE
  5
B6
100
AcDbEntity
  8
0
  6
BYLAYER
 62
  256
370
   -1
100
AcDbLine
 10
53
 20
0
 11
53
 21
1
  0
LINE
  5
B7
100
AcDbEntity
  8
0
  6
BYLAYER
 62
  256
370
   -1
100
AcDbLine
 10
54
 20
0
 11
54
 21
1
  0
LINE
  5
B8
100
AcDbEntity
  8
0
  6
BYLAYER
 62
  256
370
   -1
100
AcDbLine
 10
55
 20
0
 11
55
 21
1
  0
LINE
  5
B9
100
AcDbEntity
  8
0
  6
BYLAYER
 62
  256
370
   -1
100
AcDbLine
 10
56
 20
0
 11
56
 21
1
  0
LINE
  5
BA
100
AcDbEntity
  8
0
  6
BYLAYER
 62
  256
370
   -1
100
AcDbLine
 10
57
 20
0
 11
57
 21
1
  0
LINE
  5
BB
100
AcDbEntity
  8
0
  6
BYLAYER
 62
  256
370
   -1
100
AcDbLine
 10
58
 20
0
 11
58
 21
1
  0
LINE
  5
BC
100
AcDbEntity
  8
0
  6
BYLAYER
 62
  256
370
   -1
100
AcDbLine
 10
59
 20
0
 11
59
 21
1
  0
LINE
  5
BD
100
AcDbEntity
  8
0
  6
BYLAYER
 62
  256
370
   -1
100
AcDbLine
 10
60
 20
0
 11
60
 21
2
  0
TEXT
  5
BE
100
AcDbEntity
  8
0
  6
BYLAYER
 62
  256
370
   -1
100
AcDbText
 10
60
 20
-2.5
 30
0
 40
1
  1
60
 50
0
 41
1
 51
0
  7
STANDARD
 71
    0
210
0
220
0
230
1
100
AcDbText
  0
LINE
  5
BF
100
AcDbEntity
  8
0
  6
BYLAYER
 62
  256
370
   -1
100
AcDbLine
 10
61
 20
0
 11
61
 21
1
  0
LINE
  5
C0
100
AcDbEntity
  8
0
  6
BYLAYER
 62
  256
370
   -1
100
AcDbLine
 10
62
 20
0
 11
62
 21
1
  0
LINE
  5
C1
100
AcDbEntity
  8
0
  6
BYLAYER
 62
  256
370
   -1
100
AcDbLine
 10
63
 20
0
 11
63
 21
1
  0
LINE
  5
C2
100
AcDbEntity
  8
0
  6
BYLAYER
 62
  256
370
   -1
100
AcDbLine
 10
64
 20
0
 11
64
 21
1
  0
LINE
  5
C3
100
AcDbEntity
  8
0
  6
BYLAYER
 62
  256
370
   -1
100
AcDbLine
 10
65
 20
0
 11
65
 21
1
  0
LINE
  5
C4
100
AcDbEntity
  8
0
  6
BYLAYER
 62
  256
370
   -1
100
AcDbLine
 10
66
 20
0
 11
66
 21
1
  0
LINE
  5
C5
100
AcDbEntity
  8
0
  6
BYLAYER
 62
  256
370
   -1
100
AcDbLine
 10
67
 20
0
 11
67
 21
1
  0
LINE
  5
C6
100
AcDbEntity
  8
0
  6
BYLAYER
 62
  256
370
   -1
100
AcDbLine
 10
68
 20
0
 11
68
 21
1
  0
LINE
  5
C7
100
AcDbEntity
  8
0
  6
BYLAYER
 62
  256
370
   -1
100
AcDbLine
 10
69
 20
0
 11
69
 21
1
  0
LINE
  5
C8
100
AcDbEntity
  8
0
  6
BYLAYER
 62
  256
370
   -1
100
AcDbLine
 10
70
 20
0
 11
70
 21
2
  0
TEXT
  5
C9
100
AcDbEntity
  8
0
  6
BYLAYER
 62
  256
370
   -1
100
AcDbText
 10
70
 20
-2.5
 30
0
 40
1
  1
70
 50
0
 41
1
 51
0
  7
STANDARD
 71
    0
210
0
220
0
230
1
100
AcDbText
  0
LINE
  5
CA
100
AcDbEntity
  8
0
  6
BYLAYER
 62
  256
370
   -1
100
AcDbLine
 10
71
 20
0
 11
71
 21
1
  0
LINE
  5
CB
100
AcDbEntity
  8
0
  6
BYLAYER
 62
  256
370
   -1
100
AcDbLine
 10
72
 20
0
 11
72
 21
1
  0
LINE
  5
CC
100
AcDbEntity
  8
0
  6
BYLAYER
 62
  256
370
   -1
100
AcDbLine
 10
73
 20
0
 11
73
 21
1
  0
LINE
  5
CD
100
AcDbEntity
  8
0
  6
BYLAYER
 62
  256
370
   -1
100
AcDbLine
 10
74
 20
0
 11
74
 21
1
  0
LINE
  5
CE
100
AcDbEntity
  8
0
  6
BYLAYER
 62
  256
370
   -1
100
AcDbLine
 10
75
 20
0
 11
75
 21
1
  0
LINE
  5
CF
100
AcDbEntity
  8
0
  6
BYLAYER
 62
  256
370
   -1
100
AcDbLine
 10
76
 20
0
 11
76
 21
1
  0
LINE
  5
D0
100
AcDbEntity
  8
0
  6
BYLAYER
 62
  256
370
   -1
100
AcDbLine
 10
77
 20
0
 11
77
 21
1
  0
LINE
  5
D1
100
AcDbEntity
  8
0
  6
BYLAYER
 62
  256
370
   -1
100
AcDbLine
 10
78
 20
0
 11
78
 21
1
  0
LINE
  5
D2
100
AcDbEntity
  8
0
  6
BYLAYER
 62
  256
370
   -1
100
AcDbLine
 10
79
 20
0
 11
79
 21
1
  0
LINE
  5
D3
100
AcDbEntity
  8
0
  6
BYLAYER
 62
  256
370
   -1
100
AcDbLine
 10
80
 20
0
 11
80
 21
2
  0
TEXT
  5
D4
100
AcDbEntity
  8
0
  6
BYLAYER
 62
  256
370
   -1
100
AcDbText
 10
80
 20
-2.5
 30
0
 40
1
  1
80
 50
0
 41
1
 51
0
  7
STANDARD
 71
    0
210
0
220
0
230
1
100
AcDbText
  0
LINE
  5
D5
100
AcDbEntity
  8
0
  6
BYLAYER
 62
  256
370
   -1
100
AcDbLine
 10
81
 20
0
 11
81
 21
1
  0
LINE
  5
D6
100
AcDbEntity
  8
0
  6
BYLAYER
 62
  256
370
   -1
100
AcDbLine
 10
82
 20
0
 11
82
 21
1
  0
LINE
  5
D7
100
AcDbEntity
  8
0
  6
BYLAYER
 62
  256
370
   -1
100
AcDbLine
 10
83
 20
0
 11
83
 21
1
  0
LINE
  5
D8
100
AcDbEntity
  8
0
  6
BYLAYER
 62
  256
370
   -1
100
AcDbLine
 10
84
 20
0
 11
84
 21
1
  0
LINE
  5
D9
100
AcDbEntity
  8
0
  6
BYLAYER
 62
  256
370
   -1
100
AcDbLine
 10
85
 20
0
 11
85
 21
1
  0
LINE
  5
DA
100
AcDbEntity
  8
0
  6
BYLAYER
 62
  256
370
   -1
100
AcDbLine
 10
86
 20
0
 11
86
 21
1
  0
LINE
  5
DB
100
AcDbEntity
  8
0
  6
BYLAYER
 62
  256
370
   -1
100
AcDbLine
 10
87
 20
0
 11
87
 21
1
  0
LINE
  5
DC
100
AcDbEntity
  8
0
  6
BYLAYER
 62
  256
370
   -1
100
AcDbLine
 10
88
 20
0
 11
88
 21
1
  0
LINE
  5
DD
100
AcDbEntity
  8
0
  6
BYLAYER
 62
  256
370
   -1
100
AcDbLine
 10
89
 20
0
 11
89
 21
1
  0
LINE
  5
DE
100
AcDbEntity
  8
0
  6
BYLAYER
 62
  256
370
   -1
100
AcDbLine
 10
90
 20
0
 11
90
 21
2
  0
TEXT
  5
DF
100
AcDbEntity
  8
0
  6
BYLAYER
 62
  256
370
   -1
100
AcDbText
 10
90
 20
-2.5
 30
0
 40
1
  1
90
 50
0
 41
1
 51
0
  7
STANDARD
 71
    0
210
0
220
0
230
1
100
AcDbText
  0
LINE
  5
E0
100
AcDbEntity
  8
0
  6
BYLAYER
 62
  256
370
   -1
100
AcDbLine
 10
91
 20
0
 11
91
 21
1
  0
LINE
  5
E1
100
AcDbEntity
  8
0
  6
BYLAYER
 62
  256
370
   -1
100
AcDbLine
 10
92
 20
0
 11
92
 21
1
  0
LINE
  5
E2
100
AcDbEntity
  8
0
  6
BYLAYER
 62
  256
370
   -1
100
AcDbLine
 10
93
 20
0
 11
93
 21
1
  0
LINE
  5
E3
100
AcDbEntity
  8
0
  6
BYLAYER
 62
  256
370
   -1
100
AcDbLine
 10
94
 20
0
 11
94
 21
1
  0
LINE
  5
E4
100
AcDbEntity
  8
0
  6
BYLAYER
 62
  256
370
   -1
100
AcDbLine
 10
95
 20
0
 11
95
 21
1
  0
LINE
  5
E5
100
AcDbEntity
  8
0
  6
BYLAYER
 62
  256
370
   -1
100
AcDbLine
 10
96
 20
0
 11
96
 21
1
  0
LINE
  5
E6
100
AcDbEntity
  8
0
  6
BYLAYER
 62
  256
370
   -1
100
AcDbLine
 10
97
 20
0
 11
97
 21
1
  0
LINE
  5
E7
100
AcDbEntity
  8
0
  6
BYLAYER
 62
  256
370
   -1
100
AcDbLine
 10
98
 20
0
 11
98
 21
1
  0
LINE
  5
E8
100
AcDbEntity
  8
0
  6
BYLAYER
 62
  256
370
   -1
100
AcDbLine
 10
99
 20
0
 11
99
 21
1
  0
LINE
  5
E9
100
AcDbEntity
  8
0
  6
BYLAYER
 62
  256
370
   -1
100
AcDbLine
 10
100
 20
0
 11
100
 21
2
  0
TEXT
  5
EA
100
AcDbEntity
  8
0
  6
BYLAYER
 62
  256
370
   -1
100
AcDbText
 10
100
 20
-2.5
 30
0
 40
1
  1
100
 50
0
 41
1
 51
0
  7
STANDARD
 71
    0
210
0
220
0
230
1
100
AcDbText
  0
LINE
  5
EB
100
AcDbEntity
  8
0
  6
BYLAYER
 62
  256
370
   -1
100
AcDbLine
 10
101
 20
0
 11
101
 21
1
  0
LINE
  5
EC
100
AcDbEntity
  8
0
  6
BYLAYER
 62
  256
370
   -1
100
AcDbLine
 10
102
 20
0
 11
102
 21
1
  0
LINE
  5
ED
100
AcDbEntity
  8
0
  6
BYLAYER
 62
  256
370
   -1
100
AcDbLine
 10
103
 20
0
 11
103
 21
1
  0
LINE
  5
EE
100
AcDbEntity
  8
0
  6
BYLAYER
 62
  256
370
   -1
100
AcDbLine
 10
104
 20
0
 11
104
 21
1
  0
LINE
  5
EF
100
AcDbEntity
  8
0
  6
BYLAYER
 62
  256
370
   -1
100
AcDbLine
 10
105
 20
0
 11
105
 21
1
  0
LINE
  5
F0
100
AcDbEntity
  8
0
  6
BYLAYER
 62
  256
370
   -1
100
AcDbLine
 10
106
 20
0
 11
106
 21
1
  0
LINE
  5
F1
100
AcDbEntity
  8
0
  6
BYLAYER
 62
  256
370
   -1
100
AcDbLine
 10
107
 20
0
 11
107
 21
1
  0
LINE
  5
F2
100
AcDbEntity
  8
0
  6
BYLAYER
 62
  256
370
   -1
100
AcDbLine
 10
108
 20
0
 11
108
 21
1
  0
LINE
  5
F3
100
AcDbEntity
  8
0
  6
BYLAYER
 62
  256
370
   -1
100
AcDbLine
 10
109
 20
0
 11
109
 21
1
  0
LINE
  5
F4
100
AcDbEntity
  8
0
  6
BYLAYER
 62
  256
370
   -1
100
AcDbLine
 10
110
 20
0
 11
110
 21
2
  0
TEXT
  5
F5
100
AcDbEntity
  8
0
  6
BYLAYER
 62
  256
370
   -1
100
AcDbText
 10
110
 20
-2.5
 30
0
 40
1
  1
110
 50
0
 41
1
 51
0
  7
STANDARD
 71
    0
210
0
220
0
230
1
100
AcDbText
  0
LINE
  5
F6
100
AcDbEntity
  8
0
  6
BYLAYER
 62
  256
370
   -1
100
AcDbLine
 10
111
 20
0
 11
111
 21
1
  0
LINE
  5
F7
100
AcDbEntity
  8
0
  6
BYLAYER
 62
  256
370
   -1
100
AcDbLine
 10
112
 20
0
 11
112
 21
1
  0
LINE
  5
F8
100
AcDbEntity
  8
0
  6
BYLAYER
 62
  256
370
   -1
100
AcDbLine
 10
113
 20
0
 11
113
 21
1
  0
LINE
  5
F9
100
AcDbEntity
  8
0
  6
BYLAYER
 62
  256
370
   -1
100
AcDbLine
 10
114
 20
0
 11
114
 21
1
  0
LINE
  5
FA
100
AcDbEntity
  8
0
  6
BYLAYER
 62
  256
370
   -1
100
AcDbLine
 10
115
 20
0
 11
115
 21
1
  0
LINE
  5
FB
100
AcDbEntity
  8
0
  6
BYLAYER
 62
  256
370
   -1
100
AcDbLine
 10
116
 20
0
 11
116
 21
1
  0
LINE
  5
FC
100
AcDbEntity
  8
0
  6
BYLAYER
 62
  256
370
   -1
100
AcDbLine
 10
117
 20
0
 11
117
 21
1
  0
LINE
  5
FD
100
AcDbEntity
  8
0
  6
BYLAYER
 62
  256
370
   -1
100
AcDbLine
 10
118
 20
0
 11
118
 21
1
  0
LINE
  5
FE
100
AcDbEntity
  8
0
  6
BYLAYER
 62
  256
370
   -1
100
AcDbLine
 10
119
 20
0
 11
119
 21
1
  0
LINE
  5
FF
100
AcDbEntity
  8
0
  6
BYLAYER
 62
  256
370
   -1
100
AcDbLine
 10
120
 20
0
 11
120
 21
2
  0
TEXT
  5
100
100
AcDbEntity
  8
0
  6
BYLAYER
 62
  256
370
   -1
100
AcDbText
 10
120
 20
-2.5
 30
0
 40
1
  1
120
 50
0
 41
1
 51
0
  7
STANDARD
 71
    0
210
0
220
0
230
1
100
AcDbText
  0
LINE
  5
101
100
AcDbEntity
  8
0
  6
BYLAYER
 62
  256
370
   -1
100
AcDbLine
 10
121
 20
0
 11
121
 21
1
  0
LINE
  5
102
100
AcDbEntity
  8
0
  6
BYLAYER
 62
  256
370
   -1
100
AcDbLine
 10
122
 20
0
 11
122
 21
1
  0
LINE
  5
103
100
AcDbEntity
  8
0
  6
BYLAYER
 62
  256
370
   -1
100
AcDbLine
 10
123
 20
0
 11
123
 21
1
  0
LINE
  5
104
100
AcDbEntity
  8
0
  6
BYLAYER
 62
  256
370
   -1
100
AcDbLine
 10
124
 20
0
 11
124
 21
1
  0
LINE
  5
105
100
AcDbEntity
  8
0
  6
BYLAYER
 62
  256
370
   -1
100
AcDbLine
 10
125
 20
0
 11
125
 21
1
  0
LINE
  5
106
100
AcDbEntity
  8
0
  6
BYLAYER
 62
  256
370
   -1
100
AcDbLine
 10
126
 20
0
 11
126
 21
1
  0
LINE
  5
107
100
AcDbEntity
  8
0
  6
BYLAYER
 62
  256
370
   -1
100
AcDbLine
 10
127
 20
0
 11
127
 21
1
  0
LINE
  5
108
100
AcDbEntity
  8
0
  6
BYLAYER
 62
  256
370
   -1
100
AcDbLine
 10
128
 20
0
 11
128
 21
1
  0
LINE
  5
109
100
AcDbEntity
  8
0
  6
BYLAYER
 62
  256
370
   -1
100
AcDbLine
 10
129
 20
0
 11
129
 21
1
  0
LINE
  5
10A
100
AcDbEntity
  8
0
  6
BYLAYER
 62
  256
370
   -1
100
AcDbLine
 10
130
 20
0
 11
130
 21
2
  0
TEXT
  5
10B
100
AcDbEntity
  8
0
  6
BYLAYER
 62
  256
370
   -1
100
AcDbText
 10
130
 20
-2.5
 30
0
 40
1
  1
130
 50
0
 41
1
 51
0
  7
STANDARD
 71
    0
210
0
220
0
230
1
100
AcDbText
  0
LINE
  5
10C
100
AcDbEntity
  8
0
  6
BYLAYER
 62
  256
370
   -1
100
AcDbLine
 10
131
 20
0
 11
131
 21
1
  0
LINE
  5
10D
100
AcDbEntity
  8
0
  6
BYLAYER
 62
  256
370
   -1
100
AcDbLine
 10
132
 20
0
 11
132
 21
1
  0
LINE
  5
10E
100
AcDbEntity
  8
0
  6
BYLAYER
 62
  256
370
   -1
100
AcDbLine
 10
133
 20
0
 11
133
 21
1
  0
LINE
  5
10F
100
AcDbEntity
  8
0
  6
BYLAYER
 62
  256
370
   -1
100
AcDbLine
 10
134
 20
0
 11
134
 21
1
  0
LINE
  5
110
100
AcDbEntity
  8
0
  6
BYLAYER
 62
  256
370
   -1
100
AcDbLine
 10
135
 20
0
 11
135
 21
1
  0
LINE
  5
111
100
AcDbEntity
  8
0
  6
BYLAYER
 62
  256
370
   -1
100
AcDbLine
 10
136
 20
0
 11
136
 21
1
  0
LINE
  5
112
100
AcDbEntity
  8
0
  6
BYLAYER
 62
  256
370
   -1
100
AcDbLine
 10
137
 20
0
 11
137
 21
1
  0
LINE
  5
113
100
AcDbEntity
  8
0
  6
BYLAYER
 62
  256
370
   -1
100
AcDbLine
 10
138
 20
0
 11
138
 21
1
  0
LINE
  5
114
100
AcDbEntity
  8
0
  6
BYLAYER
 62
  256
370
   -1
100
AcDbLine
 10
139
 20
0
 11
139
 21
1
  0
LINE
  5
115
100
AcDbEntity
  8
0
  6
BYLAYER
 62
  256
370
   -1
100
AcDbLine
 10
140
 20
0
 11
140
 21
2
  0
TEXT
  5
116
100
AcDbEntity
  8
0
  6
BYLAYER
 62
  256
370
   -1
100
AcDbText
 10
140
 20
-2.5
 30
0
 40
1
  1
140
 50
0
 41
1
 51
0
  7
STANDARD
 71
    0
210
0
220
0
230
1
100
AcDbText
  0
LINE
  5
117
100
AcDbEntity
  8
0
  6
BYLAYER
 62
  256
370
   -1
100
AcDbLine
 10
141
 20
0
 11
141
 21
1
  0
LINE
  5
118
100
AcDbEntity
  8
0
  6
BYLAYER
 62
  256
370
   -1
100
AcDbLine
 10
142
 20
0
 11
142
 21
1
  0
LINE
  5
119
100
AcDbEntity
  8
0
  6
BYLAYER
 62
  256
370
   -1
100
AcDbLine
 10
143
 20
0
 11
143
 21
1
  0
LINE
  5
11A
100
AcDbEntity
  8
0
  6
BYLAYER
 62
  256
370
   -1
100
AcDbLine
 10
144
 20
0
 11
144
 21
1
  0
LINE
  5
11B
100
AcDbEntity
  8
0
  6
BYLAYER
 62
  256
370
   -1
100
AcDbLine
 10
145
 20
0
 11
145
 21
1
  0
LINE
  5
11C
100
AcDbEntity
  8
0
  6
BYLAYER
 62
  256
370
   -1
100
AcDbLine
 10
146
 20
0
 11
146
 21
1
  0
LINE
  5
11D
100
AcDbEntity
  8
0
  6
BYLAYER
 62
  256
370
   -1
100
AcDbLine
 10
147
 20
0
 11
147
 21
1
  0
LINE
  5
11E
100
AcDbEntity
  8
0
  6
BYLAYER
 62
  256
370
   -1
100
AcDbLine
 10
148
 20
0
 11
148
 21
1
  0
LINE
  5
11F
100
AcDbEntity
  8
0
  6
BYLAYER
 62
  256
370
   -1
100
AcDbLine
 10
149
 20
0
 11
149
 21
1
  0
LINE
  5
120
100
AcDbEntity
  8
0
  6
BYLAYER
 62
  256
370
   -1
100
AcDbLine
 10
150
 20
0
 11
150
 21
2
  0
TEXT
  5
121
100
AcDbEntity
  8
0
  6
BYLAYER
 62
  256
370
   -1
100
AcDbText
 10
150
 20
-2.5
 30
0
 40
1
  1
150
 50
0
 41
1
 51
0
  7
STANDARD
 71
    0
210
0
220
0
230
1
100
AcDbText
  0
LINE
  5
122
100
AcDbEntity
  8
0
  6
BYLAYER
 62
  256
370
   -1
100
AcDbLine
 10
151
 20
0
 11
151
 21
1
  0
LINE
  5
123
100
AcDbEntity
  8
0
  6
BYLAYER
 62
  256
370
   -1
100
AcDbLine
 10
152
 20
0
 11
152
 21
1
  0
LINE
  5
124
100
AcDbEntity
  8
0
  6
BYLAYER
 62
  256
370
   -1
100
AcDbLine
 10
153
 20
0
 11
153
 21
1
  0
LINE
  5
125
100
AcDbEntity
  8
0
  6
BYLAYER
 62
  256
370
   -1
100
AcDbLine
 10
154
 20
0
 11
154
 21
1
  0
LINE
  5
126
100
AcDbEntity
  8
0
  6
BYLAYER
 62
  256
370
   -1
100
AcDbLine
 10
155
 20
0
 11
155
 21
1
  0
LINE
  5
127
100
AcDbEntity
  8
0
  6
BYLAYER
 62
  256
370
   -1
100
AcDbLine
 10
156
 20
0
 11
156
 21
1
  0
LINE
  5
128
100
AcDbEntity
  8
0
  6
BYLAYER
 62
  256
370
   -1
100
AcDbLine
 10
157
 20
0
 11
157
 21
1
  0
LINE
  5
129
100
AcDbEntity
  8
0
  6
BYLAYER
 62
  256
370
   -1
100
AcDbLine
 10
158
 20
0
 11
158
 21
1
  0
LINE
  5
12A
100
AcDbEntity
  8
0
  6
BYLAYER
 62
  256
370
   -1
100
AcDbLine
 10
159
 20
0
 11
159
 21
1
  0
LINE
  5
12B
100
AcDbEntity
  8
0
  6
BYLAYER
 62
  256
370
   -1
100
AcDbLine
 10
160
 20
0
 11
160
 21
2
  0
TEXT
  5
12C
100
AcDbEntity
  8
0
  6
BYLAYER
 62
  256
370
   -1
100
AcDbText
 10
160
 20
-2.5
 30
0
 40
1
  1
160
 50
0
 41
1
 51
0
  7
STANDARD
 71
    0
210
0
220
0
230
1
100
AcDbText
  0
LINE
  5
12D
100
AcDbEntity
  8
0
  6
BYLAYER
 62
  256
370
   -1
100
AcDbLine
 10
161
 20
0
 11
161
 21
1
  0
LINE
  5
12E
100
AcDbEntity
  8
0
  6
BYLAYER
 62
  256
370
   -1
100
AcDbLine
 10
162
 20
0
 11
162
 21
1
  0
LINE
  5
12F
100
AcDbEntity
  8
0
  6
BYLAYER
 62
  256
370
   -1
100
AcDbLine
 10
163
 20
0
 11
163
 21
1
  0
LINE
  5
130
100
AcDbEntity
  8
0
  6
BYLAYER
 62
  256
370
   -1
100
AcDbLine
 10
164
 20
0
 11
164
 21
1
  0
LINE
  5
131
100
AcDbEntity
  8
0
  6
BYLAYER
 62
  256
370
   -1
100
AcDbLine
 10
165
 20
0
 11
165
 21
1
  0
LINE
  5
132
100
AcDbEntity
  8
0
  6
BYLAYER
 62
  256
370
   -1
100
AcDbLine
 10
166
 20
0
 11
166
 21
1
  0
LINE
  5
133
100
AcDbEntity
  8
0
  6
BYLAYER
 62
  256
370
   -1
100
AcDbLine
 10
167
 20
0
 11
167
 21
1
  0
LINE
  5
134
100
AcDbEntity
  8
0
  6
BYLAYER
 62
  256
370
   -1
100
AcDbLine
 10
168
 20
0
 11
168
 21
1
  0
LINE
  5
135
100
AcDbEntity
  8
0
  6
BYLAYER
 62
  256
370
   -1
100
AcDbLine
 10
169
 20
0
 11
169
 21
1
  0
LINE
  5
136
100
AcDbEntity
  8
0
  6
BYLAYER
 62
  256
370
   -1
100
AcDbLine
 10
170
 20
0
 11
170
 21
2
  0
TEXT
  5
137
100
AcDbEntity
  8
0
  6
BYLAYER
 62
  256
370
   -1
100
AcDbText
 10
170
 20
-2.5
 30
0
 40
1
  1
170
 50
0
 41
1
 51
0
  7
STANDARD
 71
    0
210
0
220
0
230
1
100
AcDbText
  0
LINE
  5
138
100
AcDbEntity
  8
0
  6
BYLAYER
 62
  256
370
   -1
100
AcDbLine
 10
171
 20
0
 11
171
 21
1
  0
LINE
  5
139
100
AcDbEntity
  8
0
  6
BYLAYER
 62
  256
370
   -1
100
AcDbLine
 10
172
 20
0
 11
172
 21
1
  0
LINE
  5
13A
100
AcDbEntity
  8
0
  6
BYLAYER
 62
  256
370
   -1
100
AcDbLine
 10
173
 20
0
 11
173
 21
1
  0
LINE
  5
13B
100
AcDbEntity
  8
0
  6
BYLAYER
 62
  256
370
   -1
100
AcDbLine
 10
174
 20
0
 11
174
 21
1
  0
LINE
  5
13C
100
AcDbEntity
  8
0
  6
BYLAYER
 62
  256
370
   -1
100
AcDbLine
 10
175
 20
0
 11
175
 21
1
  0
LINE
  5
13D
100
AcDbEntity
  8
0
  6
BYLAYER
 62
  256
370
   -1
100
AcDbLine
 10
176
 20
0
 11
176
 21
1
  0
LINE
  5
13E
100
AcDbEntity
  8
0
  6
BYLAYER
 62
  256
370
   -1
100
AcDbLine
 10
177
 20
0
 11
177
 21
1
  0
LINE
  5
13F
100
AcDbEntity
  8
0
  6
BYLAYER
 62
  256
370
   -1
100
AcDbLine
 10
178
 20
0
 11
178
 21
1
  0
LINE
  5
140
100
AcDbEntity
  8
0
  6
BYLAYER
 62
  256
370
   -1
100
AcDbLine
 10
179
 20
0
 11
179
 21
1
  0
LINE
  5
141
100
AcDbEntity
  8
0
  6
BYLAYER
 62
  256
370
   -1
100
AcDbLine
 10
180
 20
0
 11
180
 21
2
  0
TEXT
  5
142
100
AcDbEntity
  8
0
  6
BYLAYER
 62
  256
370
   -1
100
AcDbText
 10
180
 20
-2.5
 30
0
 40
1
  1
180
 50
0
 41
1
 51
0
  7
STANDARD
 71
    0
210
0
220
0
230
1
100
AcDbText
  0
LINE
  5
143
100
AcDbEntity
  8
0
  6
BYLAYER
 62
  256
370
   -1
100
AcDbLine
 10
181
 20
0
 11
181
 21
1
  0
LINE
  5
144
100
AcDbEntity
  8
0
  6
BYLAYER
 62
  256
370
   -1
100
AcDbLine
 10
182
 20
0
 11
182
 21
1
  0
LINE
  5
145
100
AcDbEntity
  8
0
  6
BYLAYER
 62
  256
370
   -1
100
AcDbLine
 10
183
 20
0
 11
183
 21
1
  0
LINE
  5
146
100
AcDbEntity
  8
0
  6
BYLAYER
 62
  256
370
   -1
100
AcDbLine
 10
184
 20
0
 11
184
 21
1
  0
LINE
  5
147
100
AcDbEntity
  8
0
  6
BYLAYER
 62
  256
370
   -1
100
AcDbLine
 10
185
 20
0
 11
185
 21
1
  0
LINE
  5
148
100
AcDbEntity
  8
0
  6
BYLAYER
 62
  256
370
   -1
100
AcDbLine
 10
186
 20
0
 11
186
 21
1
  0
LINE
  5
149
100
AcDbEntity
  8
0
  6
BYLAYER
 62
  256
370
   -1
100
AcDbLine
 10
187
 20
0
 11
187
 21
1
  0
LINE
  5
14A
100
AcDbEntity
  8
0
  6
BYLAYER
 62
  256
370
   -1
100
AcDbLine
 10
188
 20
0
 11
188
 21
1
  0
LINE
  5
14B
100
AcDbEntity
  8
0
  6
BYLAYER
 62
  256
370
   -1
100
AcDbLine
 10
189
 20
0
 11
189
 21
1
  0
LINE
  5
14C
100
AcDbEntity
  8
0
  6
BYLAYER
 62
  256
370
   -1
100
AcDbLine
 10
190
 20
0
 11
190
 21
2
  0
TEXT
  5
14D
100
AcDbEntity
  8
0
  6
BYLAYER
 62
  256
370
   -1
100
AcDbText
 10
190
 20
-2.5
 30
0
 40
1
  1
190
 50
0
 41
1
 51
0
  7
STANDARD
 71
    0
210
0
220
0
230
1
100
AcDbText
  0
LINE
  5
14E
100
AcDbEntity
  8
0
  6
BYLAYER
 62
  256
370
   -1
100
AcDbLine
 10
191
 20
0
 11
191
 21
1
  0
LINE
  5
14F
100
AcDbEntity
  8
0
  6
BYLAYER
 62
  256
370
   -1
100
AcDbLine
 10
192
 20
0
 11
192
 21
1
  0
LINE
  5
150
100
AcDbEntity
  8
0
  6
BYLAYER
 62
  256
370
   -1
100
AcDbLine
 10
193
 20
0
 11
193
 21
1
  0
LINE
  5
151
100
AcDbEntity
  8
0
  6
BYLAYER
 62
  256
370
   -1
100
AcDbLine
 10
194
 20
0
 11
194
 21
1
  0
LINE
  5
152
100
AcDbEntity
  8
0
  6
BYLAYER
 62
  256
370
   -1
100
AcDbLine
 10
195
 20
0
 11
195
 21
1
  0
LINE
  5
153
100
AcDbEntity
  8
0
  6
BYLAYER
 62
  256
370
   -1
100
AcDbLine
 10
196
 20
0
 11
196
 21
1
  0
LINE
  5
154
100
AcDbEntity
  8
0
  6
BYLAYER
 62
  256
370
   -1
100
AcDbLine
 10
197
 20
0
 11
197
 21
1
  0
LINE
  5
155
100
AcDbEntity
  8
0
  6
BYLAYER
 62
  256
370
   -1
100
AcDbLine
 10
198
 20
0
 11
198
 21
1
  0
LINE
  5
156
100
AcDbEntity
  8
0
  6
BYLAYER
 62
  256
370
   -1
100
AcDbLine
 10
199
 20
0
 11
199
 21
1
  0
LINE
  5
157
100
AcDbEntity
  8
0
  6
BYLAYER
 62
  256
370
   -1
100
AcDbLine
 10
200
 20
0
 11
200
 21
2
  0
TEXT
  5
158
100
AcDbEntity
  8
0
  6
BYLAYER
 62
  256
370
   -1
100
AcDbText
 10
200
 20
-2.5
 30
0
 40
1
  1
200
 50
0
 41
1
 51
0
  7
STANDARD
 71
    0
210
0
220
0
230
1
100
AcDbText
  0
LINE
  5
159
100
AcDbEntity
  8
0
  6
BYLAYER
 62
  256
370
   -1
100
AcDbLine
 10
10
 20
0
 11
10
 21
24.21333312988281
  0
TEXT
  5
15A
100
AcDbEntity
  8
0
  6
BYLAYER
 62
  256
370
   -1
100
AcDbText
 10
10
 20
25.21333312988281
 30
0
 40
0.5
  1
1
 50
0
 41
1
 51
0
  7
STANDARD
 71
    0
210
0
220
0
230
1
100
AcDbText
  0
TEXT
  5
15B
100
AcDbEntity
  8
0
  6
BYLAYER
 62
    1
370
   -1
100
AcDbText
 10
9
 20
12.10666656494141
 30
0
 40
0.5
  1
24.213333
 50
90
 41
1
 51
0
  7
STANDARD
 71
    0
210
0
220
0
230
1
100
AcDbText
  0
LINE
  5
15C
100
AcDbEntity
  8
0
  6
BYLAYER
 62
  256
370
   -1
100
AcDbLine
 10
12.06155276298523
 20
0
 11
12.06155276298523
 21
24.22666358947754
  0
TEXT
  5
15D
100
AcDbEntity
  8
0
  6
BYLAYER
 62
  256
370
   -1
100
AcDbText
 10
12.06155276298523
 20
25.22666358947754
 30
0
 40
0.5
  1
2
 50
0
 41
1
 51
0
  7
STANDARD
 71
    0
210
0
220
0
230
1
100
AcDbText
  0
TEXT
  5
15E
100
AcDbEntity
  8
0
  6
BYLAYER
 62
    1
370
   -1
100
AcDbText
 10
11.06155276298523
 20
12.11333179473877
 30
0
 40
0.5
  1
24.226664
 50
90
 41
1
 51
0
  7
STANDARD
 71
    0
210
0
220
0
230
1
100
AcDbText
  0
LINE
  5
15F
100
AcDbEntity
  8
0
  6
BYLAYER
 62
  256
370
   -1
100
AcDbLine
 10
14.0625
 20
0
 11
14.0625
 21
24.14333343505859
  0
TEXT
  5
160
100
AcDbEntity
  8
0
  6
BYLAYER
 62
  256
370
   -1
100
AcDbText
 10
14.0625
 20
25.14333343505859
 30
0
 40
0.5
  1
3
 50
0
 41
1
 51
0
  7
STANDARD
 71
    0
210
0
220
0
230
1
100
AcDbText
  0
TEXT
  5
161
100
AcDbEntity
  8
0
  6
BYLAYER
 62
    1
370
   -1
100
AcDbText
 10
13.0625
 20
12.0716667175293
 30
0
 40
0.5
  1
24.143333
 50
90
 41
1
 51
0
  7
STANDARD
 71
    0
210
0
220
0
230
1
100
AcDbText
  0
LINE
  5
162
100
AcDbEntity
  8
0
  6
BYLAYER
 62
  256
370
   -1
100
AcDbLine
 10
16.12404346466064
 20
0
 11
16.12404346466064
 21
24.18666648864746
  0
TEXT
  5
163
100
AcDbEntity
  8
0
  6
BYLAYER
 62
  256
370
   -1
100
AcDbText
 10
16.12404346466064
 20
25.18666648864746
 30
0
 40
0.5
  1
4
 50
0
 41
1
 51
0
  7
STANDARD
 71
    0
210
0
220
0
230
1
100
AcDbText
  0
TEXT
  5
164
100
AcDbEntity
  8
0
  6
BYLAYER
 62
    1
370
   -1
100
AcDbText
 10
15.12404346466064
 20
12.09333324432373
 30
0
 40
0.5
  1
24.186666
 50
90
 41
1
 51
0
  7
STANDARD
 71
    0
210
0
220
0
230
1
100
AcDbText
  0
LINE
  5
165
100
AcDbEntity
  8
0
  6
BYLAYER
 62
  256
370
   -1
100
AcDbLine
 10
18.18559169769287
 20
0
 11
18.18559169769287
 21
24.2933349609375
  0
TEXT
  5
166
100
AcDbEntity
  8
0
  6
BYLAYER
 62
  256
370
   -1
100
AcDbText
 10
18.18559169769287
 20
25.2933349609375
 30
0
 40
0.5
  1
5
 50
0
 41
1
 51
0
  7
STANDARD
 71
    0
210
0
220
0
230
1
100
AcDbText
  0
TEXT
  5
167
100
AcDbEntity
  8
0
  6
BYLAYER
 62
    1
370
   -1
100
AcDbText
 10
17.18559169769287
 20
12.14666748046875
 30
0
 40
0.5
  1
24.293335
 50
90
 41
1
 51
0
  7
STANDARD
 71
    0
210
0
220
0
230
1
100
AcDbText
  0
LINE
  5
168
100
AcDbEntity
  8
0
  6
BYLAYER
 62
  256
370
   -1
100
AcDbLine
 10
20.18654155731201
 20
0
 11
20.18654155731201
 21
24.3266658782959
  0
TEXT
  5
169
100
AcDbEntity
  8
0
  6
BYLAYER
 62
  256
370
   -1
100
AcDbText
 10
20.18654155731201
 20
25.3266658782959
 30
0
 40
0.5
  1
6
 50
0
 41
1
 51
0
  7
STANDARD
 71
    0
210
0
220
0
230
1
100
AcDbText
  0
TEXT
  5
16A
100
AcDbEntity
  8
0
  6
BYLAYER
 62
    1
370
   -1
100
AcDbText
 10
19.18654155731201
 20
12.16333293914795
 30
0
 40
0.5
  1
24.326666
 50
90
 41
1
 51
0
  7
STANDARD
 71
    0
210
0
220
0
230
1
100
AcDbText
  0
LINE
  5
16B
100
AcDbEntity
  8
0
  6
BYLAYER
 62
  256
370
   -1
100
AcDbLine
 10
22.24808692932129
 20
0
 11
22.24808692932129
 21
24.16666603088379
  0
TEXT
  5
16C
100
AcDbEntity
  8
0
  6
BYLAYER
 62
  256
370
   -1
100
AcDbText
 10
22.24808692932129
 20
25.16666603088379
 30
0
 40
0.5
  1
7
 50
0
 41
1
 51
0
  7
STANDARD
 71
    0
210
0
220
0
230
1
100
AcDbText
  0
TEXT
  5
16D
100
AcDbEntity
  8
0
  6
BYLAYER
 62
    1
370
   -1
100
AcDbText
 10
21.24808692932129
 20
12.08333301544189
 30
0
 40
0.5
  1
24.166666
 50
90
 41
1
 51
0
  7
STANDARD
 71
    0
210
0
220
0
230
1
100
AcDbText
  0
LINE
  5
16E
100
AcDbEntity
  8
0
  6
BYLAYER
 62
  256
370
   -1
100
AcDbLine
 10
24.2490406036377
 20
0
 11
24.2490406036377
 21
24.25666618347168
  0
TEXT
  5
16F
100
AcDbEntity
  8
0
  6
BYLAYER
 62
  256
370
   -1
100
AcDbText
 10
24.2490406036377
 20
25.25666618347168
 30
0
 40
0.5
  1
8
 50
0
 41
1
 51
0
  7
STANDARD
 71
    0
210
0
220
0
230
1
100
AcDbText
  0
TEXT
  5
170
100
AcDbEntity
  8
0
  6
BYLAYER
 62
    1
370
   -1
100
AcDbText
 10
23.2490406036377
 20
12.12833309173584
 30
0
 40
0.5
  1
24.256666
 50
90
 41
1
 51
0
  7
STANDARD
 71
    0
210
0
220
0
230
1
100
AcDbText
  0
LINE
  5
171
100
AcDbEntity
  8
0
  6
BYLAYER
 62
  256
370
   -1
100
AcDbLine
 10
26.31058502197266
 20
0
 11
26.31058502197266
 21
24.19999885559082
  0
TEXT
  5
172
100
AcDbEntity
  8
0
  6
BYLAYER
 62
  256
370
   -1
100
AcDbText
 10
26.31058502197266
 20
25.19999885559082
 30
0
 40
0.5
  1
9
 50
0
 41
1
 51
0
  7
STANDARD
 71
    0
210
0
220
0
230
1
100
AcDbText
  0
TEXT
  5
173
100
AcDbEntity
  8
0
  6
BYLAYER
 62
    1
370
   -1
100
AcDbText
 10
25.31058502197266
 20
12.09999942779541
 30
0
 40
0.5
  1
24.199999
 50
90
 41
1
 51
0
  7
STANDARD
 71
    0
210
0
220
0
230
1
100
AcDbText
  0
LINE
  5
174
100
AcDbEntity
  8
0
  6
BYLAYER
 62
  256
370
   -1
100
AcDbLine
 10
28.37212944030762
 20
0
 11
28.37212944030762
 21
24.28666687011719
  0
TEXT
  5
175
100
AcDbEntity
  8
0
  6
BYLAYER
 62
  256
370
   -1
100
AcDbText
 10
28.37212944030762
 20
25.28666687011719
 30
0
 40
0.5
  1
10
 50
0
 41
1
 51
0
  7
STANDARD
 71
    0
210
0
220
0
230
1
100
AcDbText
  0
TEXT
  5
176
100
AcDbEntity
  8
0
  6
BYLAYER
 62
    1
370
   -1
100
AcDbText
 10
27.37212944030762
 20
12.14333343505859
 30
0
 40
0.5
  1
24.286667
 50
90
 41
1
 51
0
  7
STANDARD
 71
    0
210
0
220
0
230
1
100
AcDbText
  0
LINE
  5
177
100
AcDbEntity
  8
0
  6
BYLAYER
 62
  256
370
   -1
100
AcDbLine
 10
30.43587493896484
 20
0
 11
30.43587493896484
 21
24.25
  0
TEXT
  5
178
100
AcDbEntity
  8
0
  6
BYLAYER
 62
  256
370
   -1
100
AcDbText
 10
30.43587493896484
 20
25.25
 30
0
 40
0.5
  1
11
 50
0
 41
1
 51
0
  7
STANDARD
 71
    0
210
0
220
0
230
1
100
AcDbText
  0
TEXT
  5
179
100
AcDbEntity
  8
0
  6
BYLAYER
 62
    1
370
   -1
100
AcDbText
 10
29.43587493896484
 20
12.125
 30
0
 40
0.5
  1
24.250000
 50
90
 41
1
 51
0
  7
STANDARD
 71
    0
210
0
220
0
230
1
100
AcDbText
  0
LINE
  5
17A
100
AcDbEntity
  8
0
  6
BYLAYER
 62
  256
370
   -1
100
AcDbLine
 10
32.49722290039063
 20
0
 11
32.49722290039063
 21
24.11666679382324
  0
TEXT
  5
17B
100
AcDbEntity
  8
0
  6
BYLAYER
 62
  256
370
   -1
100
AcDbText
 10
32.49722290039063
 20
25.11666679382324
 30
0
 40
0.5
  1
12
 50
0
 41
1
 51
0
  7
STANDARD
 71
    0
210
0
220
0
230
1
100
AcDbText
  0
TEXT
  5
17C
100
AcDbEntity
  8
0
  6
BYLAYER
 62
    1
370
   -1
100
AcDbText
 10
31.49722290039063
 20
12.05833339691162
 30
0
 40
0.5
  1
24.116667
 50
90
 41
1
 51
0
  7
STANDARD
 71
    0
210
0
220
0
230
1
100
AcDbText
  0
LINE
  5
17D
100
AcDbEntity
  8
0
  6
BYLAYER
 62
  256
370
   -1
100
AcDbLine
 10
34.55860328674316
 20
0
 11
34.55860328674316
 21
24.25666618347168
  0
TEXT
  5
17E
100
AcDbEntity
  8
0
  6
BYLAYER
 62
  256
370
   -1
100
AcDbText
 10
34.55860328674316
 20
25.25666618347168
 30
0
 40
0.5
  1
13
 50
0
 41
1
 51
0
  7
STANDARD
 71
    0
210
0
220
0
230
1
100
AcDbText
  0
TEXT
  5
17F
100
AcDbEntity
  8
0
  6
BYLAYER
 62
    1
370
   -1
100
AcDbText
 10
33.55860328674316
 20
12.12833309173584
 30
0
 40
0.5
  1
24.256666
 50
90
 41
1
 51
0
  7
STANDARD
 71
    0
210
0
220
0
230
1
100
AcDbText
  0
LINE
  5
180
100
AcDbEntity
  8
0
  6
BYLAYER
 62
  256
370
   -1
100
AcDbLine
 10
36.5595588684082
 20
0
 11
36.5595588684082
 21
24.25
  0
TEXT
  5
181
100
AcDbEntity
  8
0
  6
BYLAYER
 62
  256
370
   -1
100
AcDbText
 10
36.5595588684082
 20
25.25
 30
0
 40
0.5
  1
14
 50
0
 41
1
 51
0
  7
STANDARD
 71
    0
210
0
220
0
230
1
100
AcDbText
  0
TEXT
  5
182
100
AcDbEntity
  8
0
  6
BYLAYER
 62
    1
370
   -1
100
AcDbText
 10
35.5595588684082
 20
12.125
 30
0
 40
0.5
  1
24.250000
 50
90
 41
1
 51
0
  7
STANDARD
 71
    0
210
0
220
0
230
1
100
AcDbText
  0
LINE
  5
183
100
AcDbEntity
  8
0
  6
BYLAYER
 62
  256
370
   -1
100
AcDbLine
 10
38.62097358703613
 20
0
 11
38.62097358703613
 21
24.12333488464355
  0
TEXT
  5
184
100
AcDbEntity
  8
0
  6
BYLAYER
 62
  256
370
   -1
100
AcDbText
 10
38.62097358703613
 20
25.12333488464355
 30
0
 40
0.5
  1
15
 50
0
 41
1
 51
0
  7
STANDARD
 71
    0
210
0
220
0
230
1
100
AcDbText
  0
TEXT
  5
185
100
AcDbEntity
  8
0
  6
BYLAYER
 62
    1
370
   -1
100
AcDbText
 10
37.62097358703613
 20
12.06166744232178
 30
0
 40
0.5
  1
24.123335
 50
90
 41
1
 51
0
  7
STANDARD
 71
    0
210
0
220
0
230
1
100
AcDbText
  0
LINE
  5
186
100
AcDbEntity
  8
0
  6
BYLAYER
 62
  256
370
   -1
100
AcDbLine
 10
40.62193870544434
 20
0
 11
40.62193870544434
 21
24.2266674041748
  0
TEXT
  5
187
100
AcDbEntity
  8
0
  6
BYLAYER
 62
  256
370
   -1
100
AcDbText
 10
40.62193870544434
 20
25.2266674041748
 30
0
 40
0.5
  1
16
 50
0
 41
1
 51
0
  7
STANDARD
 71
    0
210
0
220
0
230
1
100
AcDbText
  0
TEXT
  5
188
100
AcDbEntity
  8
0
  6
BYLAYER
 62
    1
370
   -1
100
AcDbText
 10
39.62193870544434
 20
12.1133337020874
 30
0
 40
0.5
  1
24.226667
 50
90
 41
1
 51
0
  7
STANDARD
 71
    0
210
0
220
0
230
1
100
AcDbText
  0
LINE
  5
189
100
AcDbEntity
  8
0
  6
BYLAYER
 62
  256
370
   -1
100
AcDbLine
 10
42.68337631225586
 20
0
 11
42.68337631225586
 21
24.30000114440918
  0
TEXT
  5
18A
100
AcDbEntity
  8
0
  6
BYLAYER
 62
  256
370
   -1
100
AcDbText
 10
42.68337631225586
 20
25.30000114440918
 30
0
 40
0.5
  1
17
 50
0
 41
1
 51
0
  7
STANDARD
 71
    0
210
0
220
0
230
1
100
AcDbText
  0
TEXT
  5
18B
100
AcDbEntity
  8
0
  6
BYLAYER
 62
    1
370
   -1
100
AcDbText
 10
41.68337631225586
 20
12.15000057220459
 30
0
 40
0.5
  1
24.300001
 50
90
 41
1
 51
0
  7
STANDARD
 71
    0
210
0
220
0
230
1
100
AcDbText
  0
LINE
  5
18C
100
AcDbEntity
  8
0
  6
BYLAYER
 62
  256
370
   -1
100
AcDbLine
 10
44.74482727050781
 20
0
 11
44.74482727050781
 21
24.30333518981934
  0
TEXT
  5
18D
100
AcDbEntity
  8
0
  6
BYLAYER
 62
  256
370
   -1
100
AcDbText
 10
44.74482727050781
 20
25.30333518981934
 30
0
 40
0.5
  1
18
 50
0
 41
1
 51
0
  7
STANDARD
 71
    0
210
0
220
0
230
1
100
AcDbText
  0
TEXT
  5
18E
100
AcDbEntity
  8
0
  6
BYLAYER
 62
    1
370
   -1
100
AcDbText
 10
43.74482727050781
 20
12.15166759490967
 30
0
 40
0.5
  1
24.303335
 50
90
 41
1
 51
0
  7
STANDARD
 71
    0
210
0
220
0
230
1
100
AcDbText
  0
LINE
  5
18F
100
AcDbEntity
  8
0
  6
BYLAYER
 62
  256
370
   -1
100
AcDbLine
 10
46.74580001831055
 20
0
 11
46.74580001831055
 21
24.25666809082031
  0
TEXT
  5
190
100
AcDbEntity
  8
0
  6
BYLAYER
 62
  256
370
   -1
100
AcDbText
 10
46.74580001831055
 20
25.25666809082031
 30
0
 40
0.5
  1
19
 50
0
 41
1
 51
0
  7
STANDARD
 71
    0
210
0
220
0
230
1
100
AcDbText
  0
TEXT
  5
191
100
AcDbEntity
  8
0
  6
BYLAYER
 62
    1
370
   -1
100
AcDbText
 10
45.74580001831055
 20
12.12833404541016
 30
0
 40
0.5
  1
24.256668
 50
90
 41
1
 51
0
  7
STANDARD
 71
    0
210
0
220
0
230
1
100
AcDbText
  0
LINE
  5
192
100
AcDbEntity
  8
0
  6
BYLAYER
 62
  256
370
   -1
100
AcDbLine
 10
48.80726623535156
 20
0
 11
48.80726623535156
 21
24.26000022888184
  0
TEXT
  5
193
100
AcDbEntity
  8
0
  6
BYLAYER
 62
  256
370
   -1
100
AcDbText
 10
48.80726623535156
 20
25.26000022888184
 30
0
 40
0.5
  1
20
 50
0
 41
1
 51
0
  7
STANDARD
 71
    0
210
0
220
0
230
1
100
AcDbText
  0
TEXT
  5
194
100
AcDbEntity
  8
0
  6
BYLAYER
 62
    1
370
   -1
100
AcDbText
 10
47.80726623535156
 20
12.13000011444092
 30
0
 40
0.5
  1
24.260000
 50
90
 41
1
 51
0
  7
STANDARD
 71
    0
210
0
220
0
230
1
100
AcDbText
  0
LWPOLYLINE
  5
195
100
AcDbEntity
  8
0
  6
BYLAYER
 62
  256
370
   -1
100
AcDbPolyline
 90
    1
 70
    0
 43
0
 10
10
 20
24.21333312988281
  0
LWPOLYLINE
  5
196
100
AcDbEntity
  8
0
  6
BYLAYER
 62
  256
370
   -1
100
AcDbPolyline
 90
    2
 70
    0
 43
0
 10
10
 20
24.21333312988281
 10
12.06155276298523
 20
24.22666358947754
  0
LWPOLYLINE
  5
197
100
AcDbEntity
  8
0
  6
BYLAYER
 62
  256
370
   -1
100
AcDbPolyline
 90
    3
 70
    0
 43
0
 10
10
 20
24.21333312988281
 10
12.06155276298523
 20
24.22666358947754
 10
14.0625
 20
24.14333343505859
  0
LWPOLYLINE
  5
198
100
AcDbEntity
  8
0
  6
BYLAYER
 62
  256
370
   -1
100
AcDbPolyline
 90
    4
 70
    0
 43
0
 10
10
 20
24.21333312988281
 10
12.06155276298523
 20
24.22666358947754
 10
14.0625
 20
24.14333343505859
 10
16.12404346466064
 20
24.18666648864746
  0
LWPOLYLINE
  5
199
100
AcDbEntity
  8
0
  6
BYLAYER
 62
  256
370
   -1
100
AcDbPolyline
 90
    5
 70
    0
 43
0
 10
10
 20
24.21333312988281
 10
12.06155276298523
 20
24.22666358947754
 10
14.0625
 20
24.14333343505859
 10
16.12404346466064
 20
24.18666648864746
 10
18.18559169769287
 20
24.2933349609375
  0
LWPOLYLINE
  5
19A
100
AcDbEntity
  8
0
  6
BYLAYER
 62
  256
370
   -1
100
AcDbPolyline
 90
    6
 70
    0
 43
0
 10
10
 20
24.21333312988281
 10
12.06155276298523
 20
24.22666358947754
 10
14.0625
 20
24.14333343505859
 10
16.12404346466064
 20
24.18666648864746
 10
18.18559169769287
 20
24.2933349609375
 10
20.18654155731201
 20
24.3266658782959
  0
LWPOLYLINE
  5
19B
100
AcDbEntity
  8
0
  6
BYLAYER
 62
  256
370
   -1
100
AcDbPolyline
 90
    7
 70
    0
 43
0
 10
10
 20
24.21333312988281
 10
12.06155276298523
 20
24.22666358947754
 10
14.0625
 20
24.14333343505859
 10
16.12404346466064
 20
24.18666648864746
 10
18.18559169769287
 20
24.2933349609375
 10
20.18654155731201
 20
24.3266658782959
 10
22.24808692932129
 20
24.16666603088379
  0
LWPOLYLINE
  5
19C
100
AcDbEntity
  8
0
  6
BYLAYER
 62
  256
370
   -1
100
AcDbPolyline
 90
    8
 70
    0
 43
0
 10
10
 20
24.21333312988281
 10
12.06155276298523
 20
24.22666358947754
 10
14.0625
 20
24.14333343505859
 10
16.12404346466064
 20
24.18666648864746
 10
18.18559169769287
 20
24.2933349609375
 10
20.18654155731201
 20
24.3266658782959
 10
22.24808692932129
 20
24.16666603088379
 10
24.2490406036377
 20
24.25666618347168
  0
LWPOLYLINE
  5
19D
100
AcDbEntity
  8
0
  6
BYLAYER
 62
  256
370
   -1
100
AcDbPolyline
 90
    9
 70
    0
 43
0
 10
10
 20
24.21333312988281
 10
12.06155276298523
 20
24.22666358947754
 10
14.0625
 20
24.14333343505859
 10
16.12404346466064
 20
24.18666648864746
 10
18.18559169769287
 20
24.2933349609375
 10
20.18654155731201
 20
24.3266658782959
 10
22.24808692932129
 20
24.16666603088379
 10
24.2490406036377
 20
24.25666618347168
 10
26.31058502197266
 20
24.19999885559082
  0
LWPOLYLINE
  5
19E
100
AcDbEntity
  8
0
  6
BYLAYER
 62
  256
370
   -1
100
AcDbPolyline
 90
   10
 70
    0
 43
0
 10
10
 20
24.21333312988281
 10
12.06155276298523
 20
24.22666358947754
 10
14.0625
 20
24.14333343505859
 10
16.12404346466064
 20
24.18666648864746
 10
18.18559169769287
 20
24.2933349609375
 10
20.18654155731201
 20
24.3266658782959
 10
22.24808692932129
 20
24.16666603088379
 10
24.2490406036377
 20
24.25666618347168
 10
26.31058502197266
 20
24.19999885559082
 10
28.37212944030762
 20
24.28666687011719
  0
LWPOLYLINE
  5
19F
100
AcDbEntity
  8
0
  6
BYLAYER
 62
  256
370
   -1
100
AcDbPolyline
 90
   11
 70
    0
 43
0
 10
10
 20
24.21333312988281
 10
12.06155276298523
 20
24.22666358947754
 10
14.0625
 20
24.14333343505859
 10
16.12404346466064
 20
24.18666648864746
 10
18.18559169769287
 20
24.2933349609375
 10
20.18654155731201
 20
24.3266658782959
 10
22.24808692932129
 20
24.16666603088379
 10
24.2490406036377
 20
24.25666618347168
 10
26.31058502197266
 20
24.19999885559082
 10
28.37212944030762
 20
24.28666687011719
 10
30.43587493896484
 20
24.25
  0
LWPOLYLINE
  5
1A0
100
AcDbEntity
  8
0
  6
BYLAYER
 62
  256
370
   -1
100
AcDbPolyline
 90
   12
 70
    0
 43
0
 10
10
 20
24.21333312988281
 10
12.06155276298523
 20
24.22666358947754
 10
14.0625
 20
24.14333343505859
 10
16.12404346466064
 20
24.18666648864746
 10
18.18559169769287
 20
24.2933349609375
 10
20.18654155731201
 20
24.3266658782959
 10
22.24808692932129
 20
24.16666603088379
 10
24.2490406036377
 20
24.25666618347168
 10
26.31058502197266
 20
24.19999885559082
 10
28.37212944030762
 20
24.28666687011719
 10
30.43587493896484
 20
24.25
 10
32.49722290039063
 20
24.11666679382324
  0
LWPOLYLINE
  5
1A1
100
AcDbEntity
  8
0
  6
BYLAYER
 62
  256
370
   -1
100
AcDbPolyline
 90
   13
 70
    0
 43
0
 10
10
 20
24.21333312988281
 10
12.06155276298523
 20
24.22666358947754
 10
14.0625
 20
24.14333343505859
 10
16.12404346466064
 20
24.18666648864746
 10
18.18559169769287
 20
24.2933349609375
 10
20.18654155731201
 20
24.3266658782959
 10
22.24808692932129
 20
24.16666603088379
 10
24.2490406036377
 20
24.25666618347168
 10
26.31058502197266
 20
24.19999885559082
 10
28.37212944030762
 20
24.28666687011719
 10
30.43587493896484
 20
24.25
 10
32.49722290039063
 20
24.11666679382324
 10
34.55860328674316
 20
24.25666618347168
  0
LWPOLYLINE
  5
1A2
100
AcDbEntity
  8
0
  6
BYLAYER
 62
  256
370
   -1
100
AcDbPolyline
 90
   14
 70
    0
 43
0
 10
10
 20
24.21333312988281
 10
12.06155276298523
 20
24.22666358947754
 10
14.0625
 20
24.14333343505859
 10
16.12404346466064
 20
24.18666648864746
 10
18.18559169769287
 20
24.2933349609375
 10
20.18654155731201
 20
24.3266658782959
 10
22.24808692932129
 20
24.16666603088379
 10
24.2490406036377
 20
24.25666618347168
 10
26.31058502197266
 20
24.19999885559082
 10
28.37212944030762
 20
24.28666687011719
 10
30.43587493896484
 20
24.25
 10
32.49722290039063
 20
24.11666679382324
 10
34.55860328674316
 20
24.25666618347168
 10
36.5595588684082
 20
24.25
  0
LWPOLYLINE
  5
1A3
100
AcDbEntity
  8
0
  6
BYLAYER
 62
  256
370
   -1
100
AcDbPolyline
 90
   15
 70
    0
 43
0
 10
10
 20
24.21333312988281
 10
12.06155276298523
 20
24.22666358947754
 10
14.0625
 20
24.14333343505859
 10
16.12404346466064
 20
24.18666648864746
 10
18.18559169769287
 20
24.2933349609375
 10
20.18654155731201
 20
24.3266658782959
 10
22.24808692932129
 20
24.16666603088379
 10
24.2490406036377
 20
24.25666618347168
 10
26.31058502197266
 20
24.19999885559082
 10
28.37212944030762
 20
24.28666687011719
 10
30.43587493896484
 20
24.25
 10
32.49722290039063
 20
24.11666679382324
 10
34.55860328674316
 20
24.25666618347168
 10
36.5595588684082
 20
24.25
 10
38.62097358703613
 20
24.12333488464355
  0
LWPOLYLINE
  5
1A4
100
AcDbEntity
  8
0
  6
BYLAYER
 62
  256
370
   -1
100
AcDbPolyline
 90
   16
 70
    0
 43
0
 10
10
 20
24.21333312988281
 10
12.06155276298523
 20
24.22666358947754
 10
14.0625
 20
24.14333343505859
 10
16.12404346466064
 20
24.18666648864746
 10
18.18559169769287
 20
24.2933349609375
 10
20.18654155731201
 20
24.3266658782959
 10
22.24808692932129
 20
24.16666603088379
 10
24.2490406036377
 20
24.25666618347168
 10
26.31058502197266
 20
24.19999885559082
 10
28.37212944030762
 20
24.28666687011719
 10
30.43587493896484
 20
24.25
 10
32.49722290039063
 20
24.11666679382324
 10
34.55860328674316
 20
24.25666618347168
 10
36.5595588684082
 20
24.25
 10
38.62097358703613
 20
24.12333488464355
 10
40.62193870544434
 20
24.2266674041748
  0
LWPOLYLINE
  5
1A5
100
AcDbEntity
  8
0
  6
BYLAYER
 62
  256
370
   -1
100
AcDbPolyline
 90
   17
 70
    0
 43
0
 10
10
 20
24.21333312988281
 10
12.06155276298523
 20
24.22666358947754
 10
14.0625
 20
24.14333343505859
 10
16.12404346466064
 20
24.18666648864746
 10
18.18559169769287
 20
24.2933349609375
 10
20.18654155731201
 20
24.3266658782959
 10
22.24808692932129
 20
24.16666603088379
 10
24.2490406036377
 20
24.25666618347168
 10
26.31058502197266
 20
24.19999885559082
 10
28.37212944030762
 20
24.28666687011719
 10
30.43587493896484
 20
24.25
 10
32.49722290039063
 20
24.11666679382324
 10
34.55860328674316
 20
24.25666618347168
 10
36.5595588684082
 20
24.25
 10
38.62097358703613
 20
24.12333488464355
 10
40.62193870544434
 20
24.2266674041748
 10
42.68337631225586
 20
24.30000114440918
  0
LWPOLYLINE
  5
1A6
100
AcDbEntity
  8
0
  6
BYLAYER
 62
  256
370
   -1
100
AcDbPolyline
 90
   18
 70
    0
 43
0
 10
10
 20
24.21333312988281
 10
12.06155276298523
 20
24.22666358947754
 10
14.0625
 20
24.14333343505859
 10
16.12404346466064
 20
24.18666648864746
 10
18.18559169769287
 20
24.2933349609375
 10
20.18654155731201
 20
24.3266658782959
 10
22.24808692932129
 20
24.16666603088379
 10
24.2490406036377
 20
24.25666618347168
 10
26.31058502197266
 20
24.19999885559082
 10
28.37212944030762
 20
24.28666687011719
 10
30.43587493896484
 20
24.25
 10
32.49722290039063
 20
24.11666679382324
 10
34.55860328674316
 20
24.25666618347168
 10
36.5595588684082
 20
24.25
 10
38.62097358703613
 20
24.12333488464355
 10
40.62193870544434
 20
24.2266674041748
 10
42.68337631225586
 20
24.30000114440918
 10
44.74482727050781
 20
24.30333518981934
  0
LWPOLYLINE
  5
1A7
100
AcDbEntity
  8
0
  6
BYLAYER
 62
  256
370
   -1
100
AcDbPolyline
 90
   19
 70
    0
 43
0
 10
10
 20
24.21333312988281
 10
12.06155276298523
 20
24.22666358947754
 10
14.0625
 20
24.14333343505859
 10
16.12404346466064
 20
24.18666648864746
 10
18.18559169769287
 20
24.2933349609375
 10
20.18654155731201
 20
24.3266658782959
 10
22.24808692932129
 20
24.16666603088379
 10
24.2490406036377
 20
24.25666618347168
 10
26.31058502197266
 20
24.19999885559082
 10
28.37212944030762
 20
24.28666687011719
 10
30.43587493896484
 20
24.25
 10
32.49722290039063
 20
24.11666679382324
 10
34.55860328674316
 20
24.25666618347168
 10
36.5595588684082
 20
24.25
 10
38.62097358703613
 20
24.12333488464355
 10
40.62193870544434
 20
24.2266674041748
 10
42.68337631225586
 20
24.30000114440918
 10
44.74482727050781
 20
24.30333518981934
 10
46.74580001831055
 20
24.25666809082031
  0
LWPOLYLINE
  5
1A8
100
AcDbEntity
  8
0
  6
BYLAYER
 62
  256
370
   -1
100
AcDbPolyline
 90
   20
 70
    0
 43
0
 10
10
 20
24.21333312988281
 10
12.06155276298523
 20
24.22666358947754
 10
14.0625
 20
24.14333343505859
 10
16.12404346466064
 20
24.18666648864746
 10
18.18559169769287
 20
24.2933349609375
 10
20.18654155731201
 20
24.3266658782959
 10
22.24808692932129
 20
24.16666603088379
 10
24.2490406036377
 20
24.25666618347168
 10
26.31058502197266
 20
24.19999885559082
 10
28.37212944030762
 20
24.28666687011719
 10
30.43587493896484
 20
24.25
 10
32.49722290039063
 20
24.11666679382324
 10
34.55860328674316
 20
24.25666618347168
 10
36.5595588684082
 20
24.25
 10
38.62097358703613
 20
24.12333488464355
 10
40.62193870544434
 20
24.2266674041748
 10
42.68337631225586
 20
24.30000114440918
 10
44.74482727050781
 20
24.30333518981934
 10
46.74580001831055
 20
24.25666809082031
 10
48.80726623535156
 20
24.26000022888184
  0
ENDSEC
  0
SECTION
  2
OBJECTS
  0
DICTIONARY
  5
C
330
0
100
AcDbDictionary
281
    1
  3
ACAD_GROUP
350
D
  0
DICTIONARY
  5
D
330
C
100
AcDbDictionary
281
    1
  0
ENDSEC
  0
EOF
